<svg width="60" height="60" viewBox="0 0 60 60" fill="none" xmlns="http://www.w3.org/2000/svg">
    <path d="M30 60C46.5685 60 60 46.5685 60 30C60 13.4315 46.5685 0 30 0C13.4315 0 0 13.4315 0 30C0 46.5685 13.4315 60 30 60Z" fill="#EE4046"/>
    <path d="M11.6094 24C12.594 24 13.2813 24.5944 13.2813 25.8576C13.2813 27.1207 12.594 27.6037 11.6094 27.6037H8.73018V28.8297H10.6435C11.628 28.8297 12.4268 29.1269 12.4268 30.3901C12.4268 31.6533 11.6094 31.969 10.6435 31.969H8.73018V34.161C8.73018 35.387 8.21006 35.8885 6.89117 35.8885H6.53823C5.16362 35.8885 4.69922 35.387 4.69922 34.161V25.7647C4.69922 24.5015 5.21934 24.0186 6.53823 24.0186H11.6094V24Z" fill="white"/>
    <path d="M15.7708 28.2353C17.2011 28.2353 17.6098 28.7369 17.6098 29.9629V34.161C17.6098 35.387 17.2011 35.8886 15.7708 35.8886H15.715C14.2847 35.8886 13.876 35.387 13.876 34.161V29.9629C13.876 28.7369 14.2847 28.2353 15.715 28.2353H15.7708ZM17.6841 25.8948C17.6841 27.1765 16.8296 27.6595 15.7336 27.6595C14.6562 27.6595 13.8203 27.1579 13.8203 25.8948C13.8203 24.613 14.6562 24.0929 15.7336 24.0929C16.8482 24.0929 17.6841 24.613 17.6841 25.8948Z" fill="white"/>
    <path d="M26.3587 28.3839C26.3587 28.9598 26.1172 29.517 25.5228 29.8143C25.1512 29.6285 24.4825 29.4056 23.7952 29.4056C23.2008 29.4056 22.8107 29.4799 22.8107 29.7585C22.8107 30.0372 23.1265 30.1858 23.9995 30.4087C25.6714 30.8545 26.5444 31.6347 26.5444 32.935C26.5444 34.9598 24.5011 35.9814 22.3649 35.9814C20.0243 35.9814 18.4082 35.3499 18.4082 34.161C18.4082 33.1951 18.7983 32.7492 19.2627 32.6006C19.5971 32.805 20.5816 33.1765 21.4732 33.1765C22.3091 33.1765 22.4392 32.9907 22.4392 32.7678C22.4392 32.5449 22.1048 32.4149 20.9717 32.0991C19.6342 31.7276 18.7426 31.0217 18.7426 29.4799C18.7426 27.548 20.5073 26.322 22.8664 26.322C25.0212 26.322 26.3587 27.1022 26.3587 28.3839Z" fill="white"/>
    <path d="M29.3117 24.0186C30.742 24.0186 31.1507 24.5201 31.1507 25.7461V28.3653C31.4108 27.4737 32.0795 26.2848 33.8071 26.2848C35.2003 26.2848 36.5377 27.2322 36.5377 29.7214V34.1239C36.5377 35.3684 36.0176 35.87 34.6801 35.87H34.5501C33.3798 35.87 32.7854 35.3684 32.7854 34.1239V30.9102C32.7854 30.2601 32.4696 30.0186 32.0424 30.0186C31.5222 30.0186 31.2064 30.5016 31.1693 31.4118V34.1239C31.1693 35.3499 30.7606 35.8514 29.3303 35.8514H29.2746C27.8442 35.8514 27.4355 35.3499 27.4355 34.1239V25.7276C27.4355 24.5015 27.8442 24 29.2746 24H29.3117V24.0186Z" fill="white"/>
    <path d="M39.3986 24.0186C40.829 24.0186 41.2377 24.5201 41.2377 25.7461V29.8514C41.9064 28.9783 42.2408 28.2167 42.5008 27.6037C42.8166 26.8235 43.5411 26.3963 44.507 26.3963H45.6773C46.2717 26.3963 46.7175 26.7121 46.7175 27.2694C46.7175 27.9752 45.8445 29.4985 44.2841 30.8545C45.1386 31.8204 45.8073 32.7864 46.3089 33.678C46.5875 34.1982 46.7361 34.4954 46.7361 34.904C46.7361 35.4799 46.3089 35.8886 45.4915 35.8886H44.3213C43.6154 35.8886 42.8909 35.4427 42.4822 34.5697C42.1107 33.8081 41.8321 32.9907 41.2377 32.1548V34.161C41.2377 35.387 40.829 35.8886 39.3986 35.8886H39.3429C37.9126 35.8886 37.5039 35.387 37.5039 34.161V25.7647C37.5039 24.5387 37.9126 24.0372 39.3429 24.0372H39.3986V24.0186Z" fill="white"/>
    <path d="M50.5264 32.7307C50.5264 33.1393 50.8422 33.4737 51.3437 33.4737C51.9753 33.4737 52.3654 32.9907 52.3654 32.3777V32.0619C52.1425 32.0062 51.641 31.9505 51.3995 31.9505C50.8422 31.9505 50.5264 32.192 50.5264 32.7307ZM55.7091 30.4087L55.6905 32.3777C55.6905 33.4365 56.0992 34.1053 56.415 34.291C56.3592 34.8855 55.8948 35.9629 54.3345 35.9629C53.3128 35.9629 52.7927 35.4799 52.4397 34.6254L52.4026 34.6068C52.254 35.0898 51.5852 35.9629 50.1177 35.9629C48.5574 35.9629 47.0527 34.9969 47.0527 33.0464C47.0527 31.0774 48.8174 30.2229 50.5821 30.2229C51.3623 30.2229 51.8081 30.3158 52.3468 30.4087V30.2229C52.3468 29.7028 51.7524 29.4056 50.7679 29.4056C49.6162 29.4056 48.9289 29.6471 48.353 29.9443C47.8886 29.6099 47.4614 29.257 47.4614 28.5697C47.4614 27.4365 48.8917 26.322 51.4366 26.322C54.7617 26.3034 55.7276 28.0495 55.7091 30.4087Z" fill="white"/>
</svg>
