<svg width="212" height="212" viewBox="0 0 212 212" fill="none" xmlns="http://www.w3.org/2000/svg">
<mask id="mask0_1_351" style="mask-type:alpha" maskUnits="userSpaceOnUse" x="0" y="0" width="212" height="212">
<rect width="212" height="212" fill="white"/>
</mask>
<g mask="url(#mask0_1_351)">
<path fill-rule="evenodd" clip-rule="evenodd" d="M80.4117 105.948C84.5461 109.163 90.4587 108.657 93.9863 104.786C97.514 100.914 97.4692 94.9797 93.8836 91.1616C90.2979 87.3435 84.3784 86.9266 80.2929 90.2044L78.0966 88.5084L74.8276 89.5303L75.2007 86.2612L72.4447 84.12L69.1799 85.1376L69.553 81.8686L67.1829 80.0284L65.1901 80.6475L65.419 78.6547L64.0241 77.5692L60.8949 77.8745L60.4709 82.6827L76.8628 95.4239C75.8214 99.3263 77.2197 103.473 80.4117 105.948L80.4117 105.948ZM92.3558 102.526C91.3818 103.779 89.5765 104.006 88.323 103.032C87.0694 102.059 86.8419 100.254 87.8146 98.9997C88.7874 97.7456 90.5925 97.5172 91.847 98.4894C93.0988 99.4654 93.3263 101.27 92.3558 102.526L92.3558 102.526Z" fill="#EBEBEB"/>
<path fill-rule="evenodd" clip-rule="evenodd" d="M93.6235 67.6265C95.3998 65.4556 95.2069 62.2836 93.1807 60.3439C91.1546 58.4042 87.9771 58.3499 85.8858 60.2191C83.7945 62.0884 83.4933 65.252 85.1943 67.4823L84.2488 68.6356L84.7534 70.3994L83.0065 70.1577L81.832 71.6078L82.3366 73.3717L80.5939 73.1257L79.5763 74.3723L79.8816 75.445L78.8174 75.2966L78.228 76.0217L78.351 77.7177L80.9204 78.006L87.9503 69.3945C90.0249 69.9987 92.2595 69.3023 93.6235 67.6265H93.6235ZM91.9274 61.1901C92.5849 61.7287 92.6815 62.6982 92.1431 63.3558C91.6047 64.0134 90.6352 64.1102 89.9774 63.572C89.3197 63.0337 89.2227 62.0642 89.7608 61.4064C90.0191 61.0842 90.3962 60.8797 90.8071 60.839C91.218 60.7983 91.628 60.9249 91.9444 61.1901H91.9274Z" fill="#EBEBEB"/>
<path fill-rule="evenodd" clip-rule="evenodd" d="M70.9436 31.2049V62.318H26.2498L24.6428 31.4211L70.9436 31.2049Z" fill="#E0E0E0"/>
<rect x="24.6428" y="62.2539" width="30.8328" height="44.6932" transform="rotate(-90 24.6428 62.2539)" fill="white"/>
<path fill-rule="evenodd" clip-rule="evenodd" d="M69.536 62.4664H24.4309V31.2091H69.536V62.4664ZM24.8464 62.0424H69.112V31.6331H24.8549L24.8464 62.0424Z" fill="#E0E0E0"/>
<rect x="29.4807" y="35.2498" width="35.0097" height="23.1716" fill="white"/>
<path fill-rule="evenodd" clip-rule="evenodd" d="M64.4947 35.2498H64.3209H63.8206L61.9041 35.288H54.6961L29.4935 35.3388L29.5953 35.2371C29.5953 42.3179 29.5953 50.1619 29.5953 58.4087L29.485 58.2984L64.499 58.3239L64.4099 58.4087C64.4099 51.3576 64.4438 45.5784 64.4566 41.5504C64.4566 39.5364 64.4566 37.9676 64.4778 36.8864C64.4778 36.3522 64.4778 35.9452 64.4778 35.6611C64.4778 35.377 64.4778 35.2371 64.4778 35.2371C64.4778 35.2371 64.4778 35.3728 64.4778 35.6611C64.4778 35.9494 64.4778 36.3437 64.4778 36.8695C64.4778 37.9422 64.4778 39.511 64.4778 41.5335C64.4778 45.5742 64.5074 51.3745 64.5244 58.4468V58.5359H64.4396H29.4257H29.3154V58.4214C29.3154 50.1746 29.3154 42.3306 29.3154 35.2498V35.148H29.4172L54.6876 35.1989L61.8956 35.2286H63.7993H64.2869L64.4947 35.2498Z" fill="#E0E0E0"/>
<path fill-rule="evenodd" clip-rule="evenodd" d="M24.6387 31.3321C24.9148 31.4678 25.1738 31.6357 25.4104 31.8324C25.8683 32.1631 26.4873 32.6295 27.1615 33.168C27.8356 33.7065 28.4335 34.2153 28.8575 34.5969C29.0971 34.7872 29.3121 35.0065 29.4977 35.2498C29.4553 35.2965 28.3826 34.4018 27.0385 33.3418C26.1975 32.7225 25.396 32.0513 24.6387 31.3321Z" fill="#E0E0E0"/>
<path fill-rule="evenodd" clip-rule="evenodd" d="M69.3325 31.4211C68.6 32.1419 67.8179 32.8107 66.9921 33.4224C66.206 34.0888 65.3744 34.6994 64.5032 35.2498C65.2385 34.5287 66.0234 33.86 66.8521 33.2485C67.635 32.5819 68.4638 31.9712 69.3325 31.4211L69.3325 31.4211Z" fill="#E0E0E0"/>
<path fill-rule="evenodd" clip-rule="evenodd" d="M69.2986 62.2586L64.3167 58.2179L69.2986 62.2586Z" fill="white"/>
<path fill-rule="evenodd" clip-rule="evenodd" d="M64.3167 58.2179C65.2071 58.8045 66.057 59.4504 66.8607 60.1513C67.7138 60.8035 68.5226 61.5117 69.2817 62.2713C68.3904 61.6858 67.5404 61.0398 66.7377 60.3379C65.8811 59.69 65.072 58.9815 64.3167 58.2179L64.3167 58.2179Z" fill="#E0E0E0"/>
<path fill-rule="evenodd" clip-rule="evenodd" d="M24.6387 62.2543C25.3668 61.54 26.1446 60.8783 26.9665 60.2743C27.7444 59.6141 28.5676 59.0091 29.4299 58.4638C28.7059 59.1821 27.9292 59.8454 27.1064 60.4481C26.3277 61.108 25.5031 61.7116 24.6387 62.2544L24.6387 62.2543Z" fill="#E0E0E0"/>
<path fill-rule="evenodd" clip-rule="evenodd" d="M36.5911 50.2295L36.5911 42.4704H58.6218V50.2295L36.5911 50.2295Z" fill="#E0E0E0"/>
<path fill-rule="evenodd" clip-rule="evenodd" d="M181.896 208.043C181.896 208.157 145.483 208.255 100.573 208.255C55.6628 208.255 19.2369 208.157 19.2369 208.043C19.2369 207.928 55.6458 207.831 100.573 207.831C145.5 207.831 181.896 207.928 181.896 208.043Z" fill="#263238"/>
<path fill-rule="evenodd" clip-rule="evenodd" d="M147.887 192.592L158.381 207.852L162.133 207.941L155.256 192.249L147.887 192.592Z" fill="#263238"/>
<path fill-rule="evenodd" clip-rule="evenodd" d="M37.1508 193.368L31.6218 207.784H34.3863L44.0408 193.432L37.1508 193.368Z" fill="#263238"/>
<path fill-rule="evenodd" clip-rule="evenodd" d="M34.7679 140.991L35.1919 159.647C35.248 162.284 37.3713 164.41 40.0086 164.468L144.393 166.792C145.72 166.821 147.003 166.315 147.951 165.387C148.9 164.459 149.435 163.188 149.434 161.86V139.388C149.432 132.765 144.548 127.157 137.987 126.245C118.877 123.616 79.4745 119.575 47.6109 125.316C40.0548 126.667 34.6063 133.317 34.7679 140.991Z" fill="#1A4F8B"/>
<path fill-rule="evenodd" clip-rule="evenodd" d="M34.31 147.508C34.31 147.508 25.7113 143.527 23.9517 147.508C22.1921 151.489 24.1679 156.374 26.1014 159.096C28.0348 161.818 28.0263 195.45 28.0263 195.45L158.44 194.055L159.984 161.716C159.984 161.716 166.238 154.012 165.848 150.692C165.457 147.372 160.179 142.539 154.12 147.495C148.061 152.452 146.488 162.81 146.488 162.81L42.5102 163.595C42.5102 163.595 42.8663 149.047 34.31 147.508Z" fill="#1A4F8B"/>
<path fill-rule="evenodd" clip-rule="evenodd" d="M145.169 169.374C145.169 169.488 122.065 169.586 93.5725 169.586C65.0797 169.586 41.976 169.512 41.976 169.374C41.976 169.235 65.0712 169.162 93.5725 169.162C122.074 169.162 145.169 169.276 145.169 169.374Z" fill="#263238"/>
<path fill-rule="evenodd" clip-rule="evenodd" d="M41.9759 183.518C41.9704 183.485 41.9704 183.45 41.9759 183.417C41.9759 183.336 41.9759 183.234 41.9759 183.116C41.9759 182.85 41.9674 182.464 41.9505 181.958C41.9505 180.936 41.9505 179.49 41.9505 177.718C41.9505 174.131 41.9759 169.174 41.8105 163.726C41.7782 161.161 41.58 158.6 41.217 156.06C41.1406 155.78 41.0643 155.5 40.9922 155.212C40.9201 154.924 40.7802 154.682 40.67 154.424C40.4453 153.911 40.2163 153.419 39.9661 152.957C39.5145 152.096 38.9836 151.28 38.3804 150.519C37.8767 149.895 37.3082 149.326 36.6844 148.823C36.2106 148.445 35.7007 148.116 35.1622 147.839C34.6931 147.623 34.2133 147.43 33.7249 147.262L33.8224 147.262L34.1149 147.343C34.4891 147.45 34.8525 147.592 35.2004 147.767C35.7542 148.029 36.2774 148.352 36.7607 148.729C37.3977 149.23 37.9778 149.798 38.4906 150.425C39.1105 151.188 39.6557 152.009 40.1188 152.876C40.3774 153.342 40.6106 153.834 40.8396 154.351C40.9541 154.61 41.0601 154.877 41.1661 155.144L41.4077 155.992C41.786 158.544 41.9914 161.117 42.0225 163.696C42.1879 169.166 42.1328 174.123 42.0989 177.71C42.0734 179.486 42.0522 180.932 42.0395 181.95C42.0395 182.437 42.0395 182.823 42.0395 183.107V183.404C41.9759 183.48 41.9759 183.518 41.9759 183.518Z" fill="#263238"/>
<path fill-rule="evenodd" clip-rule="evenodd" d="M33.2967 155.013C33.3979 154.944 33.5176 154.907 33.6401 154.907C33.9809 154.881 34.3201 154.975 34.5983 155.174C34.7939 155.311 34.9539 155.493 35.0647 155.704C35.1915 155.952 35.2346 156.235 35.1877 156.51C35.0932 157.157 34.6094 157.68 33.9708 157.824C33.3282 157.916 32.693 157.614 32.3596 157.057C32.2168 156.819 32.1447 156.545 32.1519 156.268C32.1829 155.674 32.5357 155.144 33.0719 154.886C33.1801 154.827 33.301 154.797 33.4239 154.797C33.4239 154.818 33.3009 154.848 33.1101 154.962C32.8434 155.127 32.63 155.366 32.4953 155.649C32.2905 156.053 32.3097 156.534 32.5462 156.921C32.8428 157.396 33.3903 157.653 33.9454 157.578C34.4886 157.451 34.9039 157.012 35.0011 156.463C35.0774 156.011 34.8899 155.556 34.5178 155.289C34.2761 155.096 33.9785 154.988 33.6698 154.979C33.4239 154.992 33.3009 155.034 33.2967 155.013Z" fill="#263238"/>
<path fill-rule="evenodd" clip-rule="evenodd" d="M33.886 163.383C33.6388 163.199 33.4371 162.961 33.2966 162.687C32.5083 161.389 32.4888 159.764 33.2458 158.447C33.381 158.17 33.5766 157.927 33.8182 157.735C33.8478 157.76 33.6274 158.028 33.3942 158.519C33.076 159.156 32.9133 159.86 32.9193 160.572C32.9309 161.284 33.1096 161.984 33.4408 162.615C33.6867 163.099 33.9199 163.361 33.886 163.383Z" fill="#263238"/>
<path fill-rule="evenodd" clip-rule="evenodd" d="M32.5207 150.794C32.4976 151.01 32.4551 151.222 32.3935 151.43C32.2075 152.445 32.43 153.492 33.0125 154.343C33.1499 154.51 33.276 154.685 33.3899 154.869C33.3899 154.869 33.1525 154.75 32.8853 154.445C32.1874 153.592 31.9414 152.457 32.2239 151.392C32.2713 151.171 32.3734 150.965 32.5207 150.794V150.794Z" fill="#263238"/>
<path fill-rule="evenodd" clip-rule="evenodd" d="M29.981 155.484C30.0318 155.441 30.4262 155.84 31.0282 156.149C31.6303 156.459 32.1773 156.573 32.1688 156.624C31.7347 156.68 31.2948 156.581 30.9265 156.344C30.5211 156.176 30.1869 155.871 29.981 155.484Z" fill="#263238"/>
<path fill-rule="evenodd" clip-rule="evenodd" d="M158.941 183.62C158.941 183.734 129.528 183.832 93.246 183.832C56.9643 183.832 27.5599 183.734 27.5599 183.62C27.5599 183.506 56.9686 183.408 93.2799 183.408C129.591 183.408 158.941 183.498 158.941 183.62Z" fill="#263238"/>
<path fill-rule="evenodd" clip-rule="evenodd" d="M144.817 162.933C144.939 162.933 145.029 167.538 145.029 173.215C145.029 178.893 144.939 183.506 144.817 183.506C144.695 183.506 144.605 178.901 144.605 173.215C144.605 167.529 144.703 162.933 144.817 162.933Z" fill="#263238"/>
<path fill-rule="evenodd" clip-rule="evenodd" d="M101.166 127.355H100.963L100.369 127.377L98.0924 127.44L89.7057 127.635L62.0439 128.191C59.3431 128.254 56.7015 128.246 54.166 128.415C51.7244 128.52 49.3089 128.961 46.9877 129.726C44.8937 130.428 43.0199 131.666 41.552 133.317C40.8862 134.062 40.3164 134.889 39.856 135.776C39.4361 136.592 39.0885 137.443 38.8172 138.32C38.3814 139.843 38.0974 141.405 37.9692 142.984C37.8378 144.383 37.825 145.592 37.8166 146.584C37.8081 147.576 37.8166 148.339 37.8462 148.861C37.8462 149.115 37.8462 149.31 37.8462 149.454C37.8462 149.598 37.8462 149.658 37.8462 149.658C37.8462 149.658 37.8462 149.59 37.8462 149.454C37.8462 149.319 37.8462 149.115 37.8123 148.861C37.7869 148.343 37.753 147.589 37.7445 146.584C37.736 145.579 37.7445 144.379 37.859 142.971C37.9838 141.377 38.2679 139.799 38.707 138.261C38.9754 137.368 39.3216 136.502 39.7415 135.67C40.1979 134.765 40.7678 133.921 41.4375 133.16C42.9253 131.484 44.8255 130.227 46.9495 129.514C49.2786 128.736 51.7045 128.286 54.1575 128.178C56.7015 128.008 59.3473 128.013 62.0482 127.949L89.7142 127.457L98.0966 127.334L100.378 127.309H100.971L101.166 127.355Z" fill="#263238"/>
<path fill-rule="evenodd" clip-rule="evenodd" d="M67.7806 141.882C67.7806 141.882 67.6406 141.949 67.4244 142.115C67.1187 142.349 66.8899 142.67 66.7672 143.035C66.5662 143.564 66.6545 144.16 67.0004 144.608C67.3931 145.202 68.1152 145.488 68.8081 145.323C69.5009 145.158 70.017 144.578 70.0998 143.87C70.205 143.313 70.0159 142.741 69.5995 142.356C69.3246 142.088 68.9765 141.906 68.5989 141.835C68.3318 141.788 68.1749 141.805 68.1749 141.788C68.3104 141.738 68.4567 141.725 68.5989 141.75C69.3026 141.831 69.9092 142.282 70.1889 142.933C70.3138 143.242 70.3476 143.581 70.2864 143.908C70.1743 144.685 69.5993 145.314 68.8361 145.496C68.0728 145.677 67.2761 145.374 66.8266 144.731C66.6253 144.466 66.5033 144.15 66.4746 143.819C66.4555 143.53 66.5004 143.241 66.6061 142.971C66.7508 142.586 67.0154 142.258 67.3608 142.034C67.4846 141.947 67.6295 141.894 67.7805 141.882L67.7806 141.882Z" fill="#263238"/>
<path fill-rule="evenodd" clip-rule="evenodd" d="M65.9955 152.867C65.834 152.459 65.7258 152.031 65.6732 151.595C65.4664 150.56 65.4895 149.492 65.7411 148.466C66.0129 147.427 66.6651 146.528 67.5685 145.948C67.8416 145.779 68.1412 145.657 68.4547 145.587C68.567 145.552 68.6854 145.541 68.8024 145.553C68.3987 145.683 68.0116 145.859 67.6491 146.079C66.8136 146.67 66.2131 147.536 65.9531 148.526C65.7139 149.523 65.6707 150.557 65.8259 151.57C65.9276 152.376 66.0294 152.859 65.9955 152.867Z" fill="#263238"/>
<path fill-rule="evenodd" clip-rule="evenodd" d="M67.5389 135.352C67.3137 135.651 67.1056 135.962 66.9156 136.285C66.0247 137.926 66.4913 139.974 68.0053 141.068C68.317 141.278 68.6412 141.469 68.9762 141.64C68.8712 141.64 68.7674 141.618 68.671 141.576C68.404 141.482 68.1503 141.354 67.9162 141.195C66.2533 140.108 65.7491 137.9 66.7757 136.2C66.918 135.955 67.0919 135.73 67.293 135.53C67.4371 135.382 67.5304 135.322 67.5389 135.352Z" fill="#263238"/>
<path fill-rule="evenodd" clip-rule="evenodd" d="M67.1488 143.832C66.3739 143.962 65.6067 144.135 64.8508 144.349C64.1187 144.636 63.4025 144.961 62.7053 145.324C63.9306 144.258 65.5285 143.722 67.1488 143.832V143.832Z" fill="#263238"/>
<g opacity="0.3">
<path fill-rule="evenodd" clip-rule="evenodd" d="M53.4493 169.671C57.5658 172.825 62.6913 174.37 67.8653 174.017C66.7912 179 65.7199 183.985 64.6514 188.971C64.3673 190.298 64.1002 191.778 64.7956 192.948C65.7708 194.589 68.0392 194.75 69.9472 194.725C72.0672 194.695 74.2805 194.644 76.163 193.66C78.83 192.27 80.2631 189.319 81.2977 186.495C82.3322 183.671 83.2269 180.644 85.3553 178.519C87.7987 181.303 91.1059 183.186 94.7469 183.866C95.8069 184.061 97.0111 184.12 97.8591 183.442C98.7071 182.764 98.9488 181.568 98.7325 180.516C98.4504 179.48 97.9805 178.504 97.3461 177.638L91.1387 168.013C90.2907 166.711 89.3833 165.337 87.9629 164.718C86.8478 164.231 85.5843 164.294 84.3716 164.349C74.2374 164.94 64.1788 166.46 54.3227 168.89" fill="black"/>
</g>
<g opacity="0.3">
<path fill-rule="evenodd" clip-rule="evenodd" d="M86.6146 121.954C84.1045 128.585 74.7426 130.107 71.4396 136.37C68.1876 142.577 72.2198 150.786 68.8702 156.959C67.6279 159.24 65.4782 160.94 64.2825 163.238C63.4684 164.782 63.0487 166.63 61.7385 167.771C60.2036 169.107 57.825 169.081 55.9806 168.216C54.1362 167.351 52.72 165.799 51.4056 164.243C48.9464 161.326 46.6356 158.172 45.4696 154.53C43.4938 148.267 45.3085 141.182 49.2856 135.95C53.2628 130.718 59.1521 127.186 65.3722 125.07C71.5923 122.954 78.1728 122.157 84.7151 121.542" fill="black"/>
</g>
<path fill-rule="evenodd" clip-rule="evenodd" d="M56.4683 104.514C57.4185 103.033 58.7322 101.82 60.2843 100.991C61.8473 100.159 63.6746 99.9751 65.3723 100.478C67.0692 101.016 68.3577 102.408 68.7643 104.141C69.0314 105.502 68.6667 107.02 69.3706 108.216C70.1762 109.59 72.1223 110.022 72.8092 111.464C73.175 112.369 73.0981 113.392 72.6015 114.233C72.1071 115.058 71.4779 115.795 70.7401 116.412C71.1845 116.69 71.5775 117.043 71.9019 117.455C72.2289 117.876 72.3214 118.434 72.1478 118.939C71.8713 119.43 71.4154 119.795 70.8758 119.957C68.507 120.955 65.8884 121.201 63.3752 120.66C62.7053 120.516 61.9379 120.334 61.3867 120.741" fill="#263238"/>
<path fill-rule="evenodd" clip-rule="evenodd" d="M73.441 109.547L72.0799 113.698L81.3486 118.96L72.0206 119.261L72.7159 126.821L90.6723 122.412C90.6723 122.412 91.7493 115.089 73.441 109.547L72.169 109.242C71.7033 109.133 71.3213 108.801 71.1471 108.356C71.0016 107.999 70.73 107.708 70.3839 107.538L68.8533 106.74V107.953L69.7013 108.941L69.5656 111.286C69.4921 112.323 70.1817 113.26 71.1937 113.499L72.0417 113.698" fill="#B78876"/>
<path fill-rule="evenodd" clip-rule="evenodd" d="M53.1356 124.557C52.7667 124.557 49.345 125.405 47.3862 127.881C45.4273 130.357 42.595 139.728 42.595 139.728L49.803 140.974L52.9151 148.789C52.9151 148.789 71.3379 146.376 70.3585 145.397C69.4118 144.525 68.4211 143.703 67.3905 142.933L71.6305 128.81L76.7185 126.062L75.0013 119.007L64.7532 120.393L53.1356 124.557Z" fill="#FAFAFA"/>
<path fill-rule="evenodd" clip-rule="evenodd" d="M70.7485 132.176C70.7485 132.29 65.0033 132.388 57.9225 132.388C50.8417 132.388 45.0923 132.29 45.0923 132.176C45.0923 132.062 50.8375 131.964 57.9225 131.964C65.0076 131.964 70.7485 132.062 70.7485 132.176Z" fill="#1A4F8B"/>
<path fill-rule="evenodd" clip-rule="evenodd" d="M69.5996 136.327C69.5996 136.441 63.8544 136.539 56.7736 136.539C49.6928 136.539 43.9434 136.441 43.9434 136.327C43.9434 136.213 49.6843 136.115 56.7736 136.115C63.8629 136.115 69.5996 136.213 69.5996 136.327Z" fill="#1A4F8B"/>
<path fill-rule="evenodd" clip-rule="evenodd" d="M69.5995 140.805C69.5995 140.925 65.2493 141.021 59.8814 141.021C54.5136 141.021 50.1676 140.925 50.1676 140.805C50.1676 140.685 54.5178 140.597 59.8814 140.597C65.245 140.597 69.5995 140.693 69.5995 140.805Z" fill="#1A4F8B"/>
<path fill-rule="evenodd" clip-rule="evenodd" d="M71.0878 145.129C71.0878 145.244 66.7376 145.341 61.374 145.341C56.0104 145.341 51.6602 145.244 51.6602 145.129C51.6602 145.015 56.0062 144.917 61.374 144.917C66.7418 144.917 71.0878 145.007 71.0878 145.129Z" fill="#1A4F8B"/>
<path fill-rule="evenodd" clip-rule="evenodd" d="M75.6882 126.592C75.6882 126.714 72.8135 126.804 69.2731 126.804C65.7327 126.804 62.8538 126.714 62.8538 126.592C62.8538 126.47 65.7242 126.38 69.2731 126.38C72.822 126.38 75.6882 126.511 75.6882 126.592Z" fill="#1A4F8B"/>
<path fill-rule="evenodd" clip-rule="evenodd" d="M76.1545 122.094C76.1545 122.167 73.2925 122.298 69.7649 122.39C66.2372 122.481 63.3667 122.506 63.3667 122.438C63.3667 122.37 66.2245 122.235 69.7564 122.138C73.2883 122.041 76.1545 122.027 76.1545 122.094Z" fill="#1A4F8B"/>
<path fill-rule="evenodd" clip-rule="evenodd" d="M51.304 134.228C51.1463 135.398 50.9155 136.556 50.6129 137.697C50.3822 138.855 50.0805 139.997 49.7097 141.118C49.8675 139.949 50.0969 138.791 50.3966 137.65C50.6251 136.491 50.9282 135.348 51.304 134.228V134.228Z" fill="#263238"/>
<path fill-rule="evenodd" clip-rule="evenodd" d="M71.3592 187.169L65.9913 204.099L72.4616 204.752L78.5417 190.04L71.3592 187.169Z" fill="#B78876"/>
<path fill-rule="evenodd" clip-rule="evenodd" d="M76.0952 198.163L73.0127 205.795C73.0127 205.795 79.7458 211.498 79.3134 212.965L64.2783 207.534L68.5904 195.424L76.0952 198.163Z" fill="#455A64"/>
<path fill-rule="evenodd" clip-rule="evenodd" d="M68.5989 203.472C68.2664 203.455 67.9741 203.69 67.9205 204.019C67.89 204.351 68.1247 204.649 68.4548 204.697C68.8068 204.715 69.1155 204.464 69.1713 204.116C69.1713 203.794 68.8533 203.425 68.5353 203.472" fill="#E0E0E0"/>
<path fill-rule="evenodd" clip-rule="evenodd" d="M64.2783 207.534L64.7617 206.33L78.9996 212.003C78.9996 212.003 79.5635 212.533 79.3134 212.978L64.2783 207.534Z" fill="#E0E0E0"/>
<path fill-rule="evenodd" clip-rule="evenodd" d="M73.2842 205.821C73.2545 205.893 72.8602 205.795 72.4362 205.897C72.0122 205.999 71.6857 206.245 71.6306 206.19C71.5755 206.135 71.8341 205.766 72.3768 205.634C72.9195 205.503 73.3223 205.757 73.2842 205.821Z" fill="#263238"/>
<path fill-rule="evenodd" clip-rule="evenodd" d="M74.624 207.042C74.624 207.122 74.2509 207.131 73.8905 207.351C73.5301 207.572 73.352 207.856 73.2672 207.856C73.1824 207.856 73.2969 207.394 73.7505 207.131C74.2042 206.868 74.6494 206.974 74.624 207.042Z" fill="#263238"/>
<path fill-rule="evenodd" clip-rule="evenodd" d="M74.836 209.255C74.7639 209.255 74.7936 208.831 75.1285 208.509C75.4635 208.187 75.8663 208.14 75.8748 208.212C75.8833 208.284 75.5907 208.424 75.3236 208.7C75.0565 208.975 74.9123 209.276 74.836 209.255Z" fill="#263238"/>
<path fill-rule="evenodd" clip-rule="evenodd" d="M73.7759 204.002C73.7208 204.057 73.4197 203.832 72.9957 203.709C72.5717 203.586 72.1986 203.603 72.1817 203.527C72.1647 203.451 72.576 203.298 73.0721 203.451C73.5681 203.603 73.848 203.955 73.7759 204.002Z" fill="#263238"/>
<path fill-rule="evenodd" clip-rule="evenodd" d="M74.3865 202.446C74.1163 202.422 73.8572 202.327 73.6361 202.17C73.3811 202.024 73.1459 201.846 72.9365 201.64C72.8085 201.522 72.6908 201.393 72.5845 201.254C72.5176 201.177 72.4632 201.09 72.4234 200.996C72.3624 200.853 72.4061 200.687 72.5294 200.593C72.6411 200.516 72.783 200.497 72.911 200.542C73.0069 200.577 73.098 200.624 73.1824 200.682C73.3335 200.779 73.4755 200.89 73.6064 201.013C73.8189 201.22 73.9977 201.459 74.1364 201.721C74.288 201.949 74.3651 202.219 74.3569 202.492C74.3145 202.492 74.2297 202.213 73.971 201.818C73.8209 201.589 73.6413 201.381 73.4368 201.199C73.318 201.089 73.1888 200.991 73.0509 200.907C72.9068 200.809 72.7711 200.758 72.7075 200.813C72.6439 200.868 72.6778 200.847 72.7075 200.902C72.7407 200.971 72.782 201.035 72.8305 201.093C72.9285 201.223 73.0332 201.347 73.1442 201.466C73.3374 201.665 73.5473 201.847 73.7717 202.009C73.9867 202.14 74.1921 202.286 74.3865 202.446H74.3865Z" fill="#263238"/>
<path fill-rule="evenodd" clip-rule="evenodd" d="M74.2508 202.518C74.1862 202.25 74.21 201.969 74.3187 201.716C74.4582 201.262 74.7209 200.856 75.0776 200.542C75.2326 200.371 75.4653 200.292 75.6924 200.334C75.8284 200.388 75.922 200.515 75.9341 200.661C75.9416 200.763 75.933 200.866 75.9087 200.966C75.8743 201.143 75.8128 201.313 75.7263 201.471C75.5841 201.738 75.3771 201.965 75.1243 202.132C74.7003 202.416 74.3484 202.395 74.3526 202.365C74.5794 202.25 74.7988 202.121 75.0098 201.979C75.2187 201.81 75.388 201.598 75.5059 201.356C75.572 201.222 75.6205 201.079 75.65 200.932C75.6839 200.767 75.6712 200.614 75.6034 200.61C75.5355 200.606 75.3575 200.656 75.2515 200.762C75.1294 200.865 75.0173 200.978 74.9165 201.102C74.7444 201.315 74.6018 201.55 74.4925 201.801C74.3187 202.217 74.2975 202.522 74.2508 202.518Z" fill="#263238"/>
<path fill-rule="evenodd" clip-rule="evenodd" d="M91.7323 171.231L99.7459 185.159L106.301 180.953L98.2534 166.813L91.7323 171.231Z" fill="#B78876"/>
<path fill-rule="evenodd" clip-rule="evenodd" d="M104.037 176.972L108.179 184.112C108.179 184.112 116.812 182.297 117.707 183.54L104.172 192.062L97.2655 181.212L104.037 176.972Z" fill="#455A64"/>
<path fill-rule="evenodd" clip-rule="evenodd" d="M103.621 186.151C103.399 186.398 103.399 186.774 103.621 187.021C103.861 187.241 104.229 187.241 104.469 187.021C104.7 186.752 104.691 186.354 104.448 186.096C104.168 185.887 103.773 185.933 103.549 186.202" fill="#E0E0E0"/>
<path fill-rule="evenodd" clip-rule="evenodd" d="M104.172 192.054L103.52 190.934L116.74 183.183C116.74 183.183 117.507 183.065 117.707 183.531L104.172 192.054Z" fill="#E0E0E0"/>
<path fill-rule="evenodd" clip-rule="evenodd" d="M108.353 183.896C108.391 183.964 108.082 184.201 107.891 184.617C107.7 185.032 107.7 185.422 107.624 185.435C107.548 185.448 107.403 185.011 107.624 184.502C107.844 183.993 108.328 183.824 108.353 183.896Z" fill="#263238"/>
<path fill-rule="evenodd" clip-rule="evenodd" d="M110.142 183.586C110.197 183.641 109.981 183.934 109.935 184.358C109.888 184.782 110.007 185.113 109.935 185.151C109.862 185.189 109.591 184.846 109.659 184.303C109.727 183.76 110.1 183.527 110.142 183.586Z" fill="#263238"/>
<path fill-rule="evenodd" clip-rule="evenodd" d="M112.021 184.778C111.966 184.833 111.669 184.561 111.597 184.091C111.525 183.62 111.758 183.285 111.821 183.319C111.885 183.353 111.821 183.671 111.868 184.057C111.915 184.443 112.08 184.731 112.021 184.778Z" fill="#263238"/>
<path fill-rule="evenodd" clip-rule="evenodd" d="M107.23 182.374C107.23 182.454 106.878 182.552 106.521 182.798C106.165 183.044 105.949 183.357 105.877 183.323C105.805 183.289 105.941 182.874 106.365 182.573C106.789 182.272 107.23 182.302 107.23 182.374Z" fill="#263238"/>
<path fill-rule="evenodd" clip-rule="evenodd" d="M106.369 180.953C106.369 180.979 106.153 181.186 105.69 181.377C105.417 181.485 105.133 181.562 104.842 181.606C104.669 181.628 104.495 181.641 104.321 181.644C104.218 181.648 104.115 181.637 104.016 181.61C103.867 181.57 103.764 181.434 103.766 181.28C103.773 181.143 103.845 181.018 103.961 180.945C104.047 180.892 104.139 180.851 104.236 180.822C104.684 180.668 105.165 180.631 105.631 180.716C106.131 180.809 106.394 180.991 106.377 181.017C106.36 181.042 106.081 180.945 105.61 180.907C105.335 180.886 105.059 180.9 104.787 180.949C104.63 180.977 104.476 181.018 104.325 181.072C104.156 181.127 104.033 181.203 104.037 181.288C104.041 181.373 104.037 181.331 104.1 181.356C104.174 181.373 104.25 181.38 104.325 181.377C104.764 181.383 105.202 181.322 105.623 181.195C105.865 181.096 106.115 181.015 106.369 180.953H106.369Z" fill="#263238"/>
<path fill-rule="evenodd" clip-rule="evenodd" d="M106.343 181.102C106.343 181.127 106.047 180.97 105.75 180.559C105.58 180.316 105.453 180.044 105.377 179.757C105.331 179.588 105.301 179.415 105.288 179.24C105.249 179.011 105.332 178.778 105.508 178.625C105.63 178.549 105.785 178.549 105.907 178.625C105.992 178.682 106.069 178.751 106.136 178.829C106.252 178.968 106.349 179.122 106.424 179.287C106.545 179.564 106.595 179.867 106.572 180.169C106.53 180.686 106.305 180.94 106.284 180.919C106.331 180.67 106.363 180.418 106.382 180.165C106.376 179.897 106.312 179.633 106.195 179.393C106.128 179.252 106.041 179.123 105.936 179.007C105.826 178.88 105.699 178.795 105.652 178.846C105.567 178.948 105.531 179.083 105.555 179.215C105.562 179.375 105.584 179.533 105.618 179.69C105.681 179.955 105.781 180.211 105.915 180.449C106.144 180.864 106.373 181.068 106.343 181.102Z" fill="#263238"/>
<path fill-rule="evenodd" clip-rule="evenodd" d="M67.8782 169.272L83.617 158.57L93.5429 177.892L102.566 173.003C102.566 173.003 92.1734 147.648 88.4422 146.842C86.3519 146.384 62.3789 150.959 62.3789 150.959L59.6992 149.615L52.9152 148.789L52.4912 149.887C50.0966 155.95 50.3706 162.743 53.2459 168.594L53.5766 169.268L67.8782 169.272Z" fill="#263238"/>
<path fill-rule="evenodd" clip-rule="evenodd" d="M62.3534 155.882C62.4721 156.412 75.4974 168.602 75.4974 168.602L67.9926 193.826L79.1947 195.967L90.4434 165.583L69.8837 145.414L60.4751 149.344L62.3534 155.882Z" fill="#263238"/>
<path fill-rule="evenodd" clip-rule="evenodd" d="M83.617 158.566C83.6509 158.617 80.1529 161.051 75.8112 164.006C71.4694 166.961 67.9163 169.314 67.8781 169.272C67.84 169.23 71.338 166.783 75.684 163.828C80.03 160.873 83.5788 158.515 83.617 158.566Z" fill="#455A64"/>
<path fill-rule="evenodd" clip-rule="evenodd" d="M91.6941 174.288C91.5491 174.107 91.4213 173.912 91.3126 173.707C91.0794 173.325 90.7571 172.762 90.3628 172.066C89.5784 170.671 88.5354 168.721 87.4329 166.554C86.3305 164.388 85.3554 162.39 84.6727 160.945C84.3293 160.22 84.0579 159.63 83.8756 159.223C83.7684 159.017 83.6818 158.802 83.6169 158.579C83.7449 158.772 83.8583 158.975 83.9562 159.185L84.8042 160.881C85.5419 162.344 86.5298 164.298 87.6195 166.465C88.7092 168.632 89.7395 170.599 90.49 172.011C90.8504 172.694 91.1514 173.258 91.3804 173.686C91.5004 173.878 91.6053 174.079 91.6942 174.288H91.6941Z" fill="#455A64"/>
<path fill-rule="evenodd" clip-rule="evenodd" d="M77.8337 164.091C77.4991 165.021 77.0966 165.925 76.6295 166.796C76.226 167.697 75.757 168.567 75.2261 169.399C75.9624 167.567 76.834 165.793 77.8337 164.091V164.091Z" fill="#455A64"/>
<path fill-rule="evenodd" clip-rule="evenodd" d="M42.595 139.728L40.051 149.124C39.7227 150.339 39.8745 151.634 40.475 152.74V152.74C41.5283 154.696 43.7597 155.704 45.9234 155.204L66.0846 150.239L63.9646 146.05L48.0816 147.428L49.7776 140.974L42.595 139.728Z" fill="#B78876"/>
<path fill-rule="evenodd" clip-rule="evenodd" d="M51.5371 153.987L51.8 152.622L62.7265 150.658L65.9022 133.813L86.1949 131.396L82.7859 149.378L51.5371 153.987Z" fill="#455A64"/>
<path fill-rule="evenodd" clip-rule="evenodd" d="M75.014 142.886C74.5362 142.866 74.1218 142.55 73.9747 142.095C73.8277 141.64 73.9789 141.141 74.3541 140.845C74.7292 140.548 75.2491 140.516 75.658 140.764C76.0668 141.012 76.2783 141.488 76.1885 141.958C76.1177 142.537 75.5938 142.951 75.014 142.886Z" fill="#EBEBEB"/>
<path fill-rule="evenodd" clip-rule="evenodd" d="M54.5051 105.672L54.5433 106.889L55.0012 125.121C55.0563 127.241 56.9177 128.878 59.1818 128.801C61.4714 128.729 63.3116 126.936 63.2946 124.794C63.2734 122.551 63.2946 120.186 63.2946 120.186C63.2946 120.186 66.1821 119.672 66.7375 115.89C67.0131 114.012 66.8817 110.934 66.6951 108.42C66.6147 107.336 66.0953 106.332 65.2572 105.641C64.4191 104.949 63.335 104.629 62.2558 104.756L54.5051 105.672Z" fill="#B78876"/>
<path fill-rule="evenodd" clip-rule="evenodd" d="M65.2323 110.535C65.2373 110.798 65.0328 111.018 64.7702 111.031C64.6475 111.042 64.5257 111.003 64.4318 110.923C64.3379 110.844 64.2796 110.73 64.2699 110.607C64.2648 110.346 64.4668 110.127 64.7278 110.111C64.9841 110.089 65.2099 110.279 65.2323 110.535Z" fill="#263238"/>
<path fill-rule="evenodd" clip-rule="evenodd" d="M66.0464 110.043C65.9871 110.107 65.6224 109.84 65.0967 109.844C64.5709 109.848 64.1978 110.12 64.1384 110.056C64.0791 109.993 64.1724 109.912 64.3377 109.789C64.5609 109.631 64.8273 109.545 65.1009 109.543C65.3719 109.54 65.6371 109.622 65.8599 109.776C66.021 109.912 66.0761 110.014 66.0464 110.043Z" fill="#263238"/>
<path fill-rule="evenodd" clip-rule="evenodd" d="M60.0935 110.722C60.1007 110.986 59.895 111.206 59.6314 111.218C59.375 111.24 59.1492 111.05 59.1268 110.794C59.1219 110.532 59.327 110.314 59.589 110.302C59.7116 110.29 59.8339 110.328 59.9287 110.407C60.0234 110.486 60.0828 110.599 60.0935 110.722V110.722Z" fill="#263238"/>
<path fill-rule="evenodd" clip-rule="evenodd" d="M60.9288 110.2C60.8694 110.264 60.5048 109.997 59.979 110.001C59.4532 110.005 59.0801 110.277 59.0208 110.213C58.9614 110.149 59.0504 110.069 59.2158 109.946C59.4406 109.788 59.7083 109.702 59.9832 109.7C60.2529 109.697 60.5167 109.779 60.738 109.933C60.8991 110.056 60.9584 110.171 60.9288 110.2Z" fill="#263238"/>
<path fill-rule="evenodd" clip-rule="evenodd" d="M62.8622 114.038C63.1371 113.949 63.422 113.895 63.7102 113.876C63.8459 113.876 63.9688 113.834 63.99 113.741C64.0001 113.604 63.9675 113.468 63.8968 113.351L63.494 112.342C63.1184 111.488 62.8121 110.607 62.5781 109.704C63.0234 110.519 63.3993 111.37 63.7017 112.248L64.0918 113.262C64.176 113.422 64.2029 113.606 64.1681 113.783C64.1296 113.879 64.0502 113.952 63.9519 113.982C63.8772 114.003 63.8003 114.014 63.7229 114.016C63.4381 114.061 63.1488 114.068 62.8622 114.038Z" fill="#263238"/>
<path fill-rule="evenodd" clip-rule="evenodd" d="M63.2947 120.198C61.5134 120.255 59.7515 119.815 58.2067 118.926C58.2067 118.926 59.4787 121.504 63.2353 121.106L63.2947 120.198Z" fill="#AA6550"/>
<path fill-rule="evenodd" clip-rule="evenodd" d="M61.1364 109.34C61.0813 109.48 60.564 109.39 59.9492 109.433C59.3344 109.475 58.8341 109.624 58.7578 109.492C58.7239 109.429 58.8172 109.301 59.0207 109.174C59.293 109.014 59.5999 108.923 59.9153 108.907C60.2294 108.883 60.5447 108.934 60.8354 109.056C61.0559 109.157 61.1619 109.276 61.1364 109.34Z" fill="#263238"/>
<path fill-rule="evenodd" clip-rule="evenodd" d="M65.8302 108.216C65.7369 108.335 65.3765 108.216 64.9483 108.216C64.5201 108.216 64.1512 108.305 64.0664 108.182C63.9816 108.059 64.0664 108.004 64.2402 107.89C64.6766 107.608 65.2406 107.619 65.6649 107.919C65.8175 108.055 65.8684 108.178 65.8302 108.216Z" fill="#263238"/>
<path fill-rule="evenodd" clip-rule="evenodd" d="M62.8071 115.924C62.6544 115.949 62.498 115.933 62.3535 115.878L61.9295 115.759C61.8107 115.721 61.6793 115.666 61.5309 115.611C61.3821 115.57 61.2472 115.489 61.1408 115.377C61.0518 115.263 61.0687 115.059 61.2723 114.877C61.5589 114.668 61.9288 114.611 62.2654 114.723C62.6019 114.834 62.8637 115.102 62.9683 115.441C63.0573 115.708 62.9471 115.886 62.8071 115.924Z" fill="#AA6550"/>
<path fill-rule="evenodd" clip-rule="evenodd" d="M62.8792 115.878C62.8283 115.916 62.5739 115.394 61.9633 115.237C61.59 115.184 61.2092 115.226 60.8567 115.36C60.8567 115.36 60.9245 115.225 61.1323 115.119C61.4068 114.982 61.7215 114.949 62.0185 115.025C62.3164 115.101 62.577 115.282 62.752 115.534C62.8834 115.725 62.9046 115.869 62.8792 115.878Z" fill="#263238"/>
<path fill-rule="evenodd" clip-rule="evenodd" d="M58.8723 103.221C60.0724 105.114 59.7879 107.587 58.1896 109.157C57.2865 110.005 55.9424 110.654 55.8534 111.884C55.7516 113.245 57.3289 114.262 57.3289 115.628C57.3289 116.993 55.7135 117.926 55.3955 119.295C55.1411 120.398 55.8195 121.5 56.5657 122.335C57.312 123.17 58.2617 123.908 58.6857 124.943C59.1406 126.121 59.0946 127.433 58.5585 128.576C58.0219 129.701 57.3059 130.731 56.4385 131.625C55.311 131.221 54.1372 130.961 52.9448 130.849C53.0168 130.4 53.0932 129.946 53.1695 129.497C53.1465 130.036 52.7781 130.498 52.2579 130.641C51.7467 130.771 51.2121 130.779 50.6976 130.663C49.1084 130.411 47.5467 130.01 46.0336 129.463C46.7102 128.853 47.2831 128.137 47.7296 127.343C48.1763 126.527 48.1937 125.545 47.7762 124.714C47.4031 124.078 46.7162 123.671 46.3728 123.018C45.8597 122.043 46.2837 120.805 47.013 119.978C47.7423 119.151 48.7344 118.612 49.6036 117.934C50.4728 117.256 51.27 116.34 51.3378 115.237C51.4311 113.813 50.2736 112.511 50.4177 111.091C50.5788 109.471 52.2918 108.479 52.9617 106.995C53.4493 105.922 53.3857 104.599 54.132 103.688C54.7254 103.028 55.5924 102.683 56.4767 102.755C57.3485 102.831 58.1878 103.122 58.9189 103.603" fill="#263238"/>
<path fill-rule="evenodd" clip-rule="evenodd" d="M63.5999 120.605C62.9215 120.978 62.9597 122.017 63.3752 122.674C63.7907 123.332 64.4564 123.802 64.8677 124.464C65.5857 125.711 65.293 127.295 64.1766 128.203L65.8047 128.818L66.1609 128.619L67.1615 128.051L66.6909 129.208H67.7339C68.8643 129.232 69.9096 128.611 70.43 127.607C70.9503 126.603 70.8552 125.391 70.1846 124.481C69.7606 123.887 69.0907 123.416 68.9423 122.7C68.7685 121.831 69.4257 121.046 69.7437 120.224C70.2629 118.798 69.8039 117.2 68.6074 116.268" fill="#263238"/>
<path fill-rule="evenodd" clip-rule="evenodd" d="M31.482 86.2909C31.6769 86.3876 31.8001 86.5864 31.8 86.804V89.6278C31.7997 89.8046 31.7165 89.971 31.5753 90.0773C31.4347 90.1867 31.2499 90.2214 31.0792 90.1705C30.6088 90.0503 30.1097 90.1268 29.697 90.3825C29.3165 90.5998 29.0432 90.9653 28.9422 91.3917C28.8658 91.8251 28.97 92.2709 29.2306 92.6255C29.5012 93.0275 29.9208 93.3051 30.3966 93.3972C31.382 93.4958 32.3044 92.8991 32.6183 91.9598C32.6796 91.7674 32.839 91.6223 33.0363 91.5792C33.2336 91.5361 33.4389 91.6016 33.5748 91.7509C33.7108 91.9003 33.7567 92.1108 33.6953 92.3032C33.2087 93.7728 31.7559 94.6977 30.2185 94.5165C29.4344 94.3821 28.7399 93.9314 28.2978 93.27C27.8598 92.6565 27.6913 91.8907 27.8314 91.15C27.9962 90.4171 28.4565 89.785 29.1034 89.4031C29.573 89.1209 30.1116 88.9741 30.6595 88.9791L30.6594 86.804C30.6596 86.49 30.914 86.2357 31.2278 86.2358C31.3156 86.2353 31.4023 86.2541 31.482 86.2909V86.2909Z" fill="#1A4F8B"/>
<path fill-rule="evenodd" clip-rule="evenodd" d="M30.7019 85.1038C30.6973 84.8491 30.8995 84.6388 31.1541 84.6334C31.4087 84.628 31.6197 84.8296 31.626 85.0842C31.6322 85.3387 31.4313 85.5504 31.1767 85.5574C31.0534 85.5609 30.9339 85.5148 30.8447 85.4296C30.7555 85.3444 30.7041 85.2271 30.7019 85.1038Z" fill="#1A4F8B"/>
<path fill-rule="evenodd" clip-rule="evenodd" d="M44.5201 100.224C44.5201 100.224 44.3801 100.224 44.1469 100.342C43.8276 100.48 43.5582 100.712 43.3753 101.008C43.2455 101.21 43.1629 101.439 43.1336 101.678C43.1009 101.952 43.1496 102.229 43.2735 102.475C43.5334 103.074 44.1395 103.447 44.7913 103.409C45.4431 103.371 46.0019 102.93 46.1906 102.305C46.2855 102.046 46.3018 101.764 46.2373 101.496C46.178 101.262 46.0695 101.044 45.9193 100.855C45.701 100.582 45.4055 100.381 45.0713 100.279C44.8296 100.211 44.6854 100.219 44.6854 100.207H44.7872C44.8295 100.203 44.8721 100.203 44.9144 100.207C44.9702 100.21 45.0256 100.218 45.0797 100.232C45.4387 100.317 45.7602 100.516 45.9956 100.8C46.163 100.993 46.2834 101.223 46.3475 101.47C46.4171 101.751 46.4039 102.045 46.3093 102.318C46.2057 102.628 46.0178 102.902 45.7666 103.111C45.499 103.341 45.1646 103.479 44.8126 103.505C44.4606 103.519 44.1133 103.421 43.8205 103.225C43.5455 103.049 43.3253 102.799 43.1845 102.505C43.0585 102.241 43.0099 101.947 43.0445 101.657C43.0804 101.403 43.1732 101.161 43.3159 100.949C43.5189 100.639 43.8162 100.402 44.1639 100.274C44.2179 100.255 44.2732 100.24 44.3293 100.228C44.3692 100.216 44.4105 100.209 44.4522 100.207C44.4755 100.209 44.4983 100.215 44.5201 100.224Z" fill="#263238"/>
<path fill-rule="evenodd" clip-rule="evenodd" d="M48.6583 104.324C48.6583 104.324 48.5692 104.345 48.4293 104.408C48.2276 104.497 48.0576 104.645 47.9417 104.832C47.7634 105.103 47.7408 105.448 47.8823 105.74C48.0441 106.109 48.4183 106.338 48.8202 106.314C49.2222 106.29 49.5669 106.019 49.6843 105.634C49.7917 105.327 49.7288 104.987 49.519 104.739C49.3821 104.566 49.1957 104.439 48.9847 104.375C48.8363 104.328 48.7473 104.332 48.7473 104.319C48.8293 104.298 48.9154 104.298 48.9975 104.319C49.3915 104.413 49.7035 104.714 49.8115 105.104C49.8642 105.285 49.8642 105.478 49.8115 105.659C49.6835 106.09 49.2993 106.395 48.8504 106.422C48.4015 106.448 47.984 106.191 47.806 105.778C47.7213 105.607 47.6902 105.415 47.717 105.227C47.7398 105.066 47.7993 104.912 47.8908 104.777C48.0211 104.581 48.2116 104.432 48.4335 104.353C48.5054 104.327 48.5821 104.317 48.6583 104.324Z" fill="#263238"/>
<path fill-rule="evenodd" clip-rule="evenodd" d="M43.8501 91.8199C43.8501 91.8199 43.8501 91.7478 43.8501 91.6079C43.8501 91.468 43.8501 91.256 43.8501 90.9846C43.8501 90.8447 43.8501 90.6921 43.8501 90.5225C43.8501 90.3529 43.8247 90.1705 43.812 89.9713C43.7993 89.772 43.7823 89.5473 43.7611 89.3268C43.7557 89.2084 43.7401 89.0906 43.7145 88.9749L43.6509 88.6017C43.4417 87.3552 43.0458 86.1474 42.4764 85.0189C41.7354 83.5258 40.7149 82.1887 39.4702 81.08L38.9402 80.6178C38.7537 80.4737 38.5544 80.338 38.3593 80.1938L38.0583 79.9818C37.9636 79.9039 37.8614 79.8357 37.753 79.7783L37.1001 79.384C36.9898 79.3204 36.8838 79.2525 36.7693 79.1932L36.4174 79.0321L35.7093 78.7098C35.4634 78.6081 35.209 78.5317 34.9589 78.4427L34.5773 78.3113L34.3822 78.2477L34.1829 78.201C33.6477 78.0597 33.1038 77.9535 32.5548 77.883C32.2749 77.8533 31.9909 77.8025 31.7068 77.7855L30.8588 77.7601C30.7146 77.7601 30.5705 77.7601 30.4348 77.7601L30.0108 77.794C29.714 77.8194 29.4172 77.8279 29.1246 77.8661C28.5249 77.9513 27.9314 78.076 27.348 78.2392L26.9029 78.3664C26.8308 78.3664 26.7545 78.4046 26.6824 78.43L26.4661 78.5148L25.5927 78.854C25.3086 78.9812 25.0288 79.1338 24.7447 79.278C24.6048 79.3543 24.4606 79.4137 24.3207 79.4985L23.8967 79.7571C23.3472 80.1014 22.8217 80.4825 22.3237 80.8977L21.6071 81.5718L21.4248 81.7414L21.2594 81.928L20.9329 82.3054L20.6022 82.6785L20.3054 83.1025L20.0129 83.5265L19.8645 83.7342C19.8178 83.8063 19.7754 83.8784 19.733 83.9505L19.22 84.8366C19.0801 85.1462 18.9359 85.4557 18.796 85.7694C17.6924 88.3624 17.4676 91.2453 18.1557 93.9781L18.4356 94.9702L18.8045 95.92L18.8977 96.1574L19.0122 96.3822L19.2412 96.8358L19.4659 97.281L19.7373 97.705L20.0044 98.129L20.1358 98.3368L20.2885 98.5318L20.8948 99.312C21.3229 99.7988 21.7833 100.256 22.2728 100.682L22.6332 101C22.7519 101.106 22.8876 101.19 23.0148 101.284C23.2734 101.466 23.5236 101.661 23.7865 101.831L24.5921 102.28L24.7913 102.399L25.0033 102.496L25.4273 102.687C25.9782 102.938 26.5447 103.154 27.1234 103.332C27.4117 103.416 27.7042 103.471 27.9713 103.544L28.3953 103.645C28.5395 103.675 28.6837 103.683 28.8193 103.705L29.6673 103.815C29.9514 103.845 30.2355 103.815 30.5153 103.849C31.0701 103.868 31.6254 103.848 32.1774 103.789H32.3809L32.5802 103.756L32.9788 103.688C33.2417 103.637 33.5045 103.603 33.7589 103.539L34.5137 103.331L34.8868 103.23L35.2429 103.09L35.9425 102.818C36.0583 102.777 36.1703 102.726 36.2775 102.666L36.6082 102.5C36.8245 102.39 37.0322 102.288 37.2485 102.174L37.8421 101.797C39.2532 100.894 40.4757 99.7263 41.4418 98.358C41.5478 98.2096 41.6581 98.0654 41.7598 97.934L42.0227 97.4845L42.2771 97.0605C42.3195 96.9885 42.3619 96.9206 42.4001 96.8485C42.4382 96.7765 42.4637 96.7001 42.4976 96.6281L42.8792 95.8055C42.9894 95.5426 43.0657 95.2755 43.1548 95.0338L43.282 94.6734C43.3237 94.5632 43.3563 94.4497 43.3795 94.3342L43.5321 93.7024C43.5745 93.5074 43.6254 93.3293 43.6551 93.164C43.6848 92.9986 43.6975 92.846 43.7187 92.7103C43.7526 92.4389 43.7823 92.2354 43.8035 92.0912C43.8247 91.9471 43.8374 91.8835 43.8374 91.8835C43.8374 91.8835 43.8374 91.9556 43.8374 92.0955L43.7611 92.7145C43.7611 92.8502 43.7272 93.0028 43.706 93.1682C43.6848 93.3336 43.6297 93.5159 43.5873 93.7109C43.5449 93.906 43.494 94.1349 43.4431 94.3427C43.4205 94.4597 43.3878 94.5746 43.3456 94.6861C43.3032 94.8048 43.265 94.9236 43.2226 95.0465C43.1336 95.2924 43.0615 95.5596 42.947 95.8267C42.8325 96.0938 42.7011 96.3652 42.5739 96.6747L42.4721 96.8952C42.4382 96.9672 42.3916 97.0393 42.3534 97.1114C42.2686 97.2513 42.1838 97.3997 42.099 97.5354C42.0142 97.6711 41.9252 97.8364 41.8361 97.9933C41.7471 98.1502 41.6241 98.2859 41.5181 98.4385C40.5439 99.7999 39.3158 100.96 37.9014 101.856L37.3036 102.238C37.0958 102.352 36.8796 102.458 36.6591 102.568L36.3326 102.738C36.2236 102.797 36.1102 102.848 35.9934 102.891L35.2853 103.166L34.9292 103.306L34.5561 103.412L33.7971 103.624C33.5385 103.688 33.2713 103.722 33.0085 103.772L32.6057 103.845L32.4064 103.878H32.1986C31.644 103.94 31.0858 103.962 30.5281 103.946C30.244 103.946 29.9557 103.946 29.6801 103.912L28.8321 103.802C28.6837 103.802 28.5395 103.772 28.4081 103.739L27.9841 103.641C27.6957 103.569 27.3989 103.514 27.1106 103.429C26.5309 103.252 25.9642 103.036 25.4146 102.78L24.9906 102.59L24.7786 102.492L24.5751 102.373L23.7568 101.898C23.4939 101.729 23.2395 101.53 22.9809 101.347C22.8494 101.25 22.7137 101.165 22.595 101.059L22.2304 100.741C21.7135 100.312 21.2275 99.8474 20.7761 99.3502L20.1613 98.5657L20.0086 98.3665L19.8729 98.1545L19.6058 97.7305L19.3345 97.3065L19.1055 96.857L18.8723 96.3991L18.7578 96.1701L18.6561 95.92C18.5289 95.602 18.4059 95.2797 18.2829 94.9617C18.16 94.6437 18.0964 94.2961 17.9989 93.9611C17.3121 91.2042 17.5428 88.2986 18.6561 85.6846L19.0801 84.7391C19.2539 84.4423 19.4277 84.1455 19.5973 83.8487C19.644 83.7766 19.6821 83.7003 19.7288 83.6282L19.8772 83.4205L20.1782 82.9965L20.475 82.5725L20.81 82.1909L21.1407 81.8135L21.3061 81.6269L21.4884 81.4531L22.2134 80.7705C22.7165 80.3527 23.2477 79.9702 23.8034 79.6257L24.2274 79.367C24.3631 79.278 24.5115 79.2186 24.6514 79.1423C24.9355 79.0024 25.2153 78.8455 25.4994 78.7183L26.3813 78.3749L26.6018 78.2901L26.8223 78.2265L27.2717 78.1035C27.859 77.9386 28.4568 77.814 29.061 77.7304C29.3621 77.6922 29.6589 77.6795 29.9557 77.6541L30.3797 77.6244C30.5238 77.6244 30.6722 77.6244 30.8037 77.6244L31.6771 77.6498C31.9654 77.6498 32.2453 77.7177 32.5251 77.7516C33.0793 77.8202 33.6277 77.9294 34.166 78.0781L34.3695 78.1247C34.4331 78.1247 34.4967 78.1671 34.5603 78.1883L34.9461 78.3197C35.2005 78.413 35.4592 78.4851 35.7009 78.5869L36.4641 78.96L36.816 79.1211L37.1509 79.3119L37.8039 79.6935C37.9119 79.7553 38.0153 79.8248 38.1134 79.9013L38.4145 80.1175C38.6095 80.2617 38.813 80.3973 38.9996 80.5415L39.5338 81.0079C40.7891 82.1308 41.8156 83.4855 42.5569 84.9978C43.1266 86.1325 43.5184 87.348 43.7187 88.6018C43.7399 88.7289 43.7611 88.8562 43.7823 88.9749C43.8043 89.0925 43.8184 89.2115 43.8247 89.331C43.8247 89.56 43.8586 89.7762 43.8713 89.9755C43.8841 90.1748 43.901 90.3614 43.9053 90.5309C43.9095 90.7005 43.9053 90.8532 43.9053 90.9931C43.9053 91.2645 43.9053 91.4722 43.9053 91.6164L43.8501 91.8199Z" fill="#263238"/>
<rect x="100.81" y="28.9789" width="87.5348" height="132.877" fill="white"/>
<rect x="100.632" y="35.7459" width="87.5602" height="57.1849" fill="#F5F5F5"/>
<path fill-rule="evenodd" clip-rule="evenodd" d="M122.023 101.008V102.28H123.893V102.738H122.023V104.247H121.489V100.516H124.126V101.008H122.023Z" fill="#263238"/>
<path fill-rule="evenodd" clip-rule="evenodd" d="M124.448 102.848C124.438 102.251 124.79 101.707 125.339 101.471C125.887 101.235 126.524 101.355 126.95 101.773C127.377 102.192 127.507 102.827 127.281 103.38C127.055 103.933 126.517 104.294 125.919 104.294C125.529 104.312 125.148 104.166 124.869 103.892C124.59 103.617 124.437 103.239 124.448 102.848V102.848ZM126.869 102.848C126.846 102.327 126.408 101.921 125.887 101.937C125.365 101.953 124.953 102.385 124.962 102.907C124.971 103.429 125.398 103.846 125.919 103.845C126.182 103.851 126.434 103.747 126.615 103.557C126.796 103.367 126.888 103.11 126.869 102.848Z" fill="#263238"/>
<path fill-rule="evenodd" clip-rule="evenodd" d="M129.617 101.407V101.903H129.498C129.246 101.888 129.001 101.986 128.829 102.171C128.657 102.355 128.576 102.606 128.608 102.857L128.608 104.264H128.095V101.432H128.586V101.903C128.809 101.556 129.207 101.364 129.617 101.407V101.407Z" fill="#263238"/>
<path fill-rule="evenodd" clip-rule="evenodd" d="M132.92 101.432V103.87C132.92 104.871 132.415 105.32 131.457 105.32C130.972 105.341 130.494 105.191 130.109 104.896L130.35 104.502C130.661 104.745 131.045 104.876 131.44 104.871C132.106 104.871 132.411 104.561 132.411 103.921V103.696C132.152 103.982 131.779 104.137 131.393 104.12C130.887 104.148 130.406 103.894 130.144 103.459C129.882 103.025 129.882 102.481 130.144 102.046C130.406 101.611 130.887 101.357 131.393 101.385C131.795 101.367 132.182 101.54 132.436 101.852V101.428L132.92 101.432ZM132.419 102.768C132.386 102.255 131.96 101.857 131.446 101.857C130.933 101.857 130.507 102.255 130.473 102.768C130.507 103.28 130.933 103.678 131.446 103.678C131.96 103.678 132.386 103.28 132.419 102.768Z" fill="#263238"/>
<path fill-rule="evenodd" clip-rule="evenodd" d="M133.636 102.848C133.626 102.251 133.978 101.707 134.527 101.471C135.076 101.235 135.713 101.355 136.139 101.773C136.565 102.192 136.695 102.827 136.469 103.38C136.243 103.933 135.705 104.294 135.108 104.294C134.717 104.312 134.336 104.166 134.057 103.892C133.778 103.617 133.625 103.239 133.636 102.848V102.848ZM136.057 102.848C136.034 102.327 135.596 101.921 135.075 101.937C134.553 101.953 134.141 102.385 134.15 102.907C134.159 103.429 134.586 103.846 135.108 103.845C135.37 103.851 135.622 103.747 135.803 103.557C135.984 103.367 136.077 103.11 136.057 102.848H136.057Z" fill="#263238"/>
<path fill-rule="evenodd" clip-rule="evenodd" d="M138.873 104.095C138.695 104.229 138.477 104.3 138.254 104.294C138.01 104.322 137.767 104.239 137.593 104.066C137.419 103.894 137.333 103.651 137.359 103.408V101.856H136.876V101.432H137.376V100.813H137.885V101.432H138.695V101.856H137.885V103.387C137.87 103.508 137.908 103.629 137.989 103.72C138.071 103.811 138.187 103.862 138.309 103.861C138.453 103.862 138.593 103.814 138.707 103.726L138.873 104.095Z" fill="#263238"/>
<path fill-rule="evenodd" clip-rule="evenodd" d="M143.85 102.848C143.871 103.235 143.728 103.612 143.456 103.887C143.184 104.162 142.808 104.31 142.422 104.294C142.039 104.306 141.673 104.134 141.438 103.832V105.295H140.925V101.432H141.417V101.877C141.654 101.564 142.029 101.387 142.422 101.402C142.808 101.386 143.184 101.534 143.456 101.809C143.728 102.084 143.871 102.462 143.85 102.848V102.848ZM143.333 102.848C143.31 102.327 142.873 101.922 142.352 101.937C141.831 101.952 141.419 102.383 141.426 102.904C141.434 103.425 141.858 103.844 142.379 103.845C142.642 103.851 142.895 103.747 143.076 103.557C143.258 103.367 143.351 103.11 143.333 102.848Z" fill="#263238"/>
<path fill-rule="evenodd" clip-rule="evenodd" d="M146.772 102.556V104.252H146.28V103.878C146.064 104.17 145.713 104.33 145.351 104.302C144.711 104.302 144.308 103.959 144.308 103.454C144.308 102.95 144.601 102.628 145.44 102.628H146.28V102.53C146.28 102.106 146.026 101.847 145.521 101.847C145.197 101.843 144.882 101.949 144.626 102.149L144.414 101.767C144.751 101.517 145.162 101.389 145.58 101.402C146.335 101.407 146.772 101.78 146.772 102.556ZM146.263 103.404V103.009H145.474C144.966 103.009 144.821 103.209 144.821 103.433C144.821 103.658 145.055 103.891 145.445 103.891C145.801 103.925 146.139 103.725 146.28 103.395L146.263 103.404Z" fill="#263238"/>
<path fill-rule="evenodd" clip-rule="evenodd" d="M147.365 103.976L147.577 103.552C147.873 103.743 148.218 103.845 148.57 103.845C149.044 103.845 149.239 103.7 149.239 103.463C149.239 102.827 147.454 103.378 147.454 102.25C147.454 101.746 147.908 101.402 148.633 101.402C148.993 101.396 149.349 101.486 149.663 101.661L149.443 102.064C149.199 101.911 148.916 101.833 148.629 101.839C148.179 101.839 147.963 102.004 147.963 102.229C147.963 102.895 149.752 102.352 149.752 103.45C149.752 103.963 149.286 104.298 148.531 104.298C148.119 104.311 147.712 104.199 147.365 103.976H147.365Z" fill="#263238"/>
<path fill-rule="evenodd" clip-rule="evenodd" d="M150.037 103.976L150.249 103.552C150.544 103.743 150.889 103.845 151.241 103.845C151.716 103.845 151.911 103.7 151.911 103.463C151.911 102.827 150.126 103.378 150.126 102.25C150.126 101.746 150.579 101.402 151.304 101.402C151.665 101.396 152.02 101.486 152.335 101.661L152.114 102.064C151.871 101.911 151.588 101.833 151.3 101.839C150.851 101.839 150.634 102.004 150.634 102.229C150.634 102.895 152.424 102.352 152.424 103.45C152.424 103.963 151.957 104.298 151.203 104.298C150.79 104.311 150.384 104.199 150.037 103.976H150.037Z" fill="#263238"/>
<path fill-rule="evenodd" clip-rule="evenodd" d="M157.304 101.432L156.248 104.256H155.756L154.942 102.136L154.116 104.256H153.624L152.559 101.432H153.064L153.887 103.679L154.735 101.432H155.159L156.007 103.692L156.855 101.432H157.304Z" fill="#263238"/>
<path fill-rule="evenodd" clip-rule="evenodd" d="M157.465 102.848C157.457 102.253 157.808 101.712 158.355 101.478C158.902 101.244 159.536 101.364 159.96 101.781C160.385 102.198 160.515 102.829 160.291 103.38C160.066 103.931 159.531 104.292 158.936 104.294C158.545 104.312 158.165 104.166 157.886 103.892C157.606 103.617 157.454 103.239 157.465 102.848H157.465ZM159.882 102.848C159.856 102.33 159.42 101.928 158.901 101.946C158.383 101.963 157.974 102.394 157.984 102.912C157.993 103.431 158.418 103.846 158.936 103.845C159.198 103.851 159.451 103.747 159.631 103.557C159.811 103.367 159.902 103.109 159.882 102.848Z" fill="#263238"/>
<path fill-rule="evenodd" clip-rule="evenodd" d="M162.629 101.407V101.903H162.511C162.259 101.888 162.014 101.986 161.842 102.171C161.669 102.355 161.588 102.606 161.62 102.857L161.62 104.264H161.12V101.432H161.608V101.903C161.828 101.559 162.223 101.367 162.629 101.407H162.629Z" fill="#263238"/>
<path fill-rule="evenodd" clip-rule="evenodd" d="M165.898 100.304V104.26H165.407V103.811C165.171 104.129 164.793 104.311 164.397 104.294C163.63 104.252 163.03 103.618 163.03 102.85C163.03 102.082 163.63 101.448 164.397 101.407C164.78 101.393 165.146 101.561 165.385 101.86L165.385 100.304L165.898 100.304ZM165.39 102.848C165.366 102.327 164.929 101.921 164.407 101.937C163.886 101.953 163.474 102.385 163.483 102.907C163.492 103.429 163.918 103.846 164.44 103.845C164.702 103.851 164.955 103.747 165.136 103.557C165.317 103.367 165.409 103.11 165.39 102.848H165.39Z" fill="#263238"/>
<path fill-rule="evenodd" clip-rule="evenodd" d="M168.536 101.513C168.536 101.173 168.256 100.94 167.772 100.94C167.405 100.92 167.05 101.078 166.818 101.364L166.433 101.089C166.769 100.679 167.282 100.456 167.811 100.491C168.578 100.491 169.083 100.847 169.083 101.44C169.083 102.331 168.141 102.386 168.141 103.086H167.607C167.599 102.246 168.536 102.127 168.536 101.513ZM167.522 103.951C167.542 103.774 167.691 103.641 167.868 103.641C168.045 103.641 168.194 103.774 168.213 103.951C168.194 104.127 168.045 104.26 167.868 104.26C167.691 104.26 167.542 104.127 167.522 103.951Z" fill="#263238"/>
<path fill-rule="evenodd" clip-rule="evenodd" d="M179.187 112.019C179.187 112.142 164.185 112.231 145.691 112.231C127.196 112.231 112.195 112.142 112.195 112.019C112.195 111.897 127.191 111.807 145.691 111.807C164.19 111.807 179.187 111.905 179.187 112.019Z" fill="black"/>
<path fill-rule="evenodd" clip-rule="evenodd" d="M164.885 115.602C164.885 115.716 156.291 115.814 145.686 115.814C135.082 115.814 126.483 115.716 126.483 115.602C126.483 115.488 135.082 115.39 145.686 115.39C156.291 115.39 164.885 115.455 164.885 115.602Z" fill="black"/>
<path fill-rule="evenodd" clip-rule="evenodd" d="M158.83 70.0941C162.728 66.4582 163.173 60.4355 159.852 56.2663C156.53 52.0971 150.56 51.1847 146.145 54.1714C141.73 57.1582 140.356 63.0388 142.99 67.6731L140.912 69.6108L141.412 73.0579L138.186 72.176L135.587 74.6013L136.104 78.0272L132.882 77.1241L130.647 79.2059L130.952 81.3259L128.985 80.7747L127.688 81.9873L127.493 85.1801L132.254 86.38L147.709 71.964C151.455 73.6292 155.834 72.893 158.83 70.0941ZM157.304 57.5395C158.113 58.4058 158.32 59.6743 157.829 60.7531C157.338 61.8319 156.245 62.5085 155.061 62.4673C153.876 62.426 152.833 61.675 152.418 60.5646C152.003 59.4542 152.298 58.2033 153.166 57.3953C154.349 56.2935 156.201 56.358 157.304 57.5395Z" fill="#263238"/>
<path fill-rule="evenodd" clip-rule="evenodd" d="M157.304 57.5395C157.304 57.5395 157.113 57.3614 156.723 57.1155C156.169 56.7841 155.521 56.6427 154.879 56.7127C153.433 56.8687 152.343 58.0983 152.362 59.5521C152.38 61.0059 153.501 62.2072 154.951 62.3262C156.4 62.4451 157.701 61.4427 157.957 60.0114C158.075 59.3762 157.978 58.7198 157.681 58.1458C157.469 57.7218 157.283 57.5522 157.304 57.5353C157.325 57.5183 157.359 57.5734 157.444 57.6625C157.569 57.7909 157.678 57.9331 157.77 58.0865C158.115 58.6713 158.244 59.3584 158.135 60.0284C158.007 60.8337 157.558 61.5529 156.891 62.0219C156.224 62.4908 155.396 62.6696 154.595 62.5173C153.283 62.2768 152.284 61.2053 152.135 59.88C152.039 59.0708 152.275 58.2572 152.789 57.6246C153.302 56.9919 154.05 56.5942 154.862 56.5219C155.539 56.4593 156.218 56.6364 156.778 57.0222C156.933 57.1218 157.076 57.24 157.202 57.3741C157.304 57.4844 157.329 57.5353 157.304 57.5395Z" fill="#263238"/>
<path fill-rule="evenodd" clip-rule="evenodd" d="M158.83 70.0941C158.83 70.0941 158.784 70.145 158.682 70.234L158.233 70.658C157.623 71.1542 156.961 71.5808 156.257 71.93C153.545 73.2288 150.401 73.2738 147.654 72.053H147.739L132.309 86.4944L132.267 86.5411H132.203L127.442 85.3454L127.344 85.3242V85.2224C127.403 84.226 127.467 83.1364 127.535 82.0297V81.928L127.569 81.894L128.896 80.656L128.943 80.6093H129.01L130.978 81.1605L130.821 81.2962C130.723 80.639 130.622 79.9182 130.516 79.1762V79.1126L130.562 79.0702L132.797 76.9841L132.848 76.9333H132.915L136.138 77.8364L135.981 77.9763C135.824 76.8824 135.655 75.7121 135.485 74.5292V74.4613L135.536 74.4189L136.223 73.7745L138.135 71.9937L138.186 71.9428H138.254L141.48 72.8459L141.319 72.9858C141.152 71.8241 140.987 70.675 140.823 69.5387V69.4751L140.87 69.4285L142.947 67.4908L142.926 67.6434C142.122 66.2151 141.667 64.617 141.599 62.9794C141.559 62.1882 141.616 61.3951 141.769 60.6177C141.907 59.8533 142.135 59.1076 142.447 58.396C144.053 54.721 147.645 52.3118 151.655 52.2208C155.664 52.1298 159.362 54.3736 161.133 57.972C161.946 59.6347 162.293 61.4869 162.138 63.3313C162.03 64.7062 161.64 66.0442 160.993 67.2618C160.929 67.389 160.866 67.5077 160.802 67.6265L160.594 67.9487C160.454 68.1565 160.34 68.3727 160.204 68.5296C159.928 68.8603 159.716 69.1571 159.509 69.3776L159 69.9415L158.835 70.0941C158.835 70.0941 158.881 70.0348 158.983 69.9245L159.441 69.4369C159.64 69.2249 159.865 68.9239 160.115 68.5889C160.242 68.4151 160.353 68.2116 160.488 68.0081C160.556 67.9021 160.624 67.7961 160.692 67.6816L160.878 67.3212C162.584 64.0399 162.364 60.0896 160.305 57.0179C158.245 53.9462 154.675 52.2422 150.992 52.5734C147.308 52.9045 144.099 55.2182 142.621 58.608C142.319 59.3041 142.097 60.0324 141.959 60.7788C141.814 61.5386 141.76 62.3129 141.798 63.0854C141.871 64.6788 142.317 66.2328 143.1 67.6222L143.147 67.707L143.075 67.7749L141.001 69.7125L141.039 69.6023C141.203 70.733 141.369 71.8834 141.535 73.0537L141.565 73.2445L141.374 73.1936L138.152 72.2905L138.275 72.2608L136.363 74.0416L135.68 74.6733L135.718 74.5588C135.888 75.7418 136.057 76.9163 136.214 78.006L136.244 78.201L136.053 78.1501L132.831 77.2428L132.949 77.2131C132.182 77.9339 131.419 78.642 130.715 79.2992L130.757 79.1889C130.859 79.914 130.961 80.6348 131.058 81.3089L131.084 81.4955L130.901 81.4446L128.938 80.8934L129.053 80.8637L127.751 82.0764L127.789 81.9958C127.721 83.1025 127.654 84.1921 127.594 85.1885L127.505 85.0656L132.267 86.2655L132.161 86.2952L147.637 71.9046L147.675 71.8707H147.722C150.43 73.0896 153.536 73.0679 156.227 71.8113C156.929 71.477 157.594 71.0706 158.211 70.5987L158.673 70.2129L158.83 70.0941Z" fill="#263238"/>
<path fill-rule="evenodd" clip-rule="evenodd" d="M158.487 68.9366C162.383 65.3028 162.828 59.2835 159.51 55.1159C156.191 50.9482 150.225 50.0345 145.811 53.0179C141.397 56.0014 140.021 61.8781 142.651 66.5113L140.577 68.4448L141.073 71.8961L137.851 70.9888L135.256 73.4183L135.752 76.8654L132.53 75.9623L130.295 78.0484L130.596 80.1684L128.633 79.6214L127.331 80.8341L127.136 84.0268L131.898 85.2225L147.353 70.8065C151.102 72.4809 155.49 71.744 158.487 68.9366H158.487ZM156.977 56.382C157.787 57.2483 157.994 58.5168 157.503 59.5956C157.012 60.6744 155.919 61.351 154.734 61.3097C153.55 61.2685 152.507 60.5175 152.092 59.4071C151.677 58.2967 151.972 57.0457 152.839 56.2378C153.407 55.7076 154.162 55.4248 154.938 55.4519C155.715 55.4789 156.448 55.8135 156.977 56.382Z" fill="#1A4F8B"/>
<path fill-rule="evenodd" clip-rule="evenodd" d="M156.977 56.382C156.977 56.382 156.787 56.2039 156.397 55.958C155.848 55.6156 155.2 55.4664 154.556 55.534C153.115 55.6925 152.029 56.9202 152.049 58.3704C152.069 59.8205 153.186 61.0186 154.632 61.1382C156.077 61.2579 157.377 60.2599 157.635 58.8327C157.752 58.197 157.653 57.5405 157.355 56.9671C157.143 56.5431 156.96 56.3735 156.977 56.3565C156.994 56.3396 157.033 56.3947 157.122 56.4837C157.245 56.6124 157.353 56.7546 157.444 56.9077C157.79 57.4936 157.919 58.1825 157.808 58.8539C157.679 59.6578 157.231 60.3755 156.565 60.8441C155.9 61.3128 155.073 61.4926 154.272 61.3428C152.961 61.1153 151.954 60.0561 151.792 58.7352C151.698 57.9264 151.935 57.1141 152.448 56.4821C152.961 55.85 153.708 55.4516 154.518 55.3771C155.196 55.3154 155.875 55.494 156.435 55.8817C156.591 55.98 156.733 56.0983 156.859 56.2336C156.948 56.3269 156.986 56.3777 156.977 56.382Z" fill="#263238"/>
<path fill-rule="evenodd" clip-rule="evenodd" d="M158.487 68.9366C158.487 68.9366 158.44 68.9875 158.343 69.0765L157.893 69.4751C157.283 69.9699 156.621 70.3965 155.918 70.7471C153.205 72.0455 150.059 72.0904 147.31 70.8701L147.395 70.8701L131.97 85.3115L131.923 85.3539H131.864L127.098 84.1582L127.005 84.1328V84.0353C127.064 83.0389 127.132 81.9492 127.196 80.8425V80.7917L127.23 80.762L128.531 79.5451L128.582 79.4985H128.65L130.613 80.0454L130.456 80.1853C130.363 79.5281 130.257 78.8073 130.151 78.0653V78.0017L130.202 77.9551L132.432 75.8733L132.483 75.8224L132.555 75.8436L135.778 76.7467L135.616 76.8866L135.12 73.448V73.3801L135.167 73.3335L135.858 72.6933L137.766 70.9125L137.817 70.8616L137.889 70.8828L141.111 71.7859L140.95 71.9258C140.784 70.7641 140.618 69.615 140.454 68.4787V68.4109L140.505 68.3685L142.583 66.4308L142.557 66.5834C141.753 65.1552 141.299 63.557 141.23 61.9194C141.193 61.1282 141.25 60.3354 141.4 59.5577C141.539 58.7935 141.767 58.0479 142.078 57.336C144.071 52.7033 149.129 50.1996 154.021 51.4247C158.913 52.6498 162.195 57.2421 161.769 62.2671C161.661 63.6419 161.271 64.9798 160.624 66.1976L160.433 66.5622L160.225 66.8845C160.085 67.0922 159.971 67.3085 159.84 67.4653C159.564 67.7961 159.352 68.0929 159.144 68.3133L158.652 68.784C158.546 68.89 158.487 68.9409 158.487 68.9409C158.487 68.9409 158.538 68.8773 158.64 68.767L159.093 68.2837C159.293 68.0717 159.517 67.7706 159.767 67.4357C159.895 67.2661 160.009 67.0625 160.145 66.8548L160.348 66.5325L160.531 66.1679C161.157 64.957 161.531 63.6313 161.629 62.2713C162.001 57.3549 158.774 52.8864 153.991 51.6925C149.207 50.4987 144.259 52.9273 142.277 57.442C141.976 58.1382 141.756 58.8666 141.62 59.6129C141.473 60.3723 141.419 61.1469 141.459 61.9194C141.53 63.5124 141.975 65.0665 142.757 66.4562L142.807 66.541L142.735 66.6089L140.658 68.5465L140.696 68.4363C140.863 69.567 141.028 70.716 141.192 71.8834L141.222 72.0785L141.035 72.0234L137.8 71.116L137.919 71.0863L136.011 72.8713L135.32 73.5116L135.358 73.4013C135.532 74.5843 135.697 75.7545 135.854 76.8485L135.884 77.0435L135.697 76.9884L132.47 76.0853L132.593 76.0556L130.359 78.1374L130.397 78.0314C130.499 78.7565 130.605 79.473 130.698 80.1302L130.723 80.321L130.541 80.2701L128.578 79.7189L128.693 79.6893L127.395 80.9019L127.433 80.8171C127.365 81.9237 127.298 83.0177 127.234 84.0098L127.145 83.8869L131.906 85.091L131.8 85.1207L147.276 70.7301L147.315 70.6962L147.361 70.7174C150.071 71.9301 153.174 71.9085 155.867 70.6581C156.569 70.323 157.236 69.9167 157.855 69.4454L158.313 69.0596L158.487 68.9366Z" fill="#263238"/>
<path fill-rule="evenodd" clip-rule="evenodd" d="M157.55 68.1395C158.053 67.6005 158.513 67.022 158.924 66.4096C159.389 65.6836 159.742 64.8918 159.971 64.0606C160.284 62.959 160.384 61.8076 160.263 60.6686C160.124 59.2922 159.664 57.9678 158.919 56.8017C158.062 55.4668 156.865 54.384 155.451 53.6641C154.694 53.2698 153.88 52.9952 153.038 52.85C152.606 52.7692 152.168 52.7182 151.728 52.6974C151.279 52.6905 150.83 52.7132 150.384 52.7652C146.539 53.2063 143.431 56.1043 142.723 59.9097C142.639 60.3508 142.586 60.797 142.561 61.2453C142.553 61.6857 142.574 62.1263 142.625 62.5639C142.71 63.4136 142.928 64.2447 143.27 65.0273C143.889 66.4885 144.887 67.7576 146.161 68.7034C147.27 69.5293 148.559 70.0813 149.922 70.3146C151.046 70.5138 152.197 70.4951 153.314 70.2595C154.159 70.0861 154.974 69.7874 155.731 69.3733C156.37 69.008 156.978 68.5911 157.55 68.1268C157.55 68.1268 157.52 68.1649 157.448 68.2285L157.13 68.5168C156.96 68.673 156.777 68.8149 156.583 68.9408C156.328 69.1338 156.059 69.3067 155.778 69.4581C155.019 69.8927 154.198 70.2087 153.344 70.3952C149.09 71.3453 144.763 69.1259 143.053 65.1164C142.7 64.3082 142.474 63.45 142.383 62.5724C142.262 61.6766 142.289 60.7669 142.464 59.88C143.187 55.9639 146.385 52.9809 150.342 52.532C151.25 52.4152 152.17 52.4467 153.068 52.6253C153.932 52.7805 154.767 53.0665 155.544 53.4733C156.992 54.2162 158.215 55.3333 159.085 56.7085C160.474 58.9173 160.848 61.6167 160.111 64.12C159.866 64.961 159.493 65.7591 159.004 66.4859C158.836 66.7555 158.646 67.0108 158.436 67.2491C158.295 67.4339 158.139 67.6069 157.97 67.7664L157.66 68.0632C157.592 68.1098 157.554 68.1437 157.55 68.1395Z" fill="#263238"/>
<path fill-rule="evenodd" clip-rule="evenodd" d="M157.139 60.8933C157.117 60.8933 157.351 60.6729 157.635 60.2192C158.034 59.5716 158.204 58.8085 158.118 58.0525C157.999 56.9269 157.313 55.9403 156.299 55.4365C155.716 55.1382 155.058 55.0216 154.408 55.1015C153.374 55.2262 152.458 55.8291 151.935 56.7298C151.412 57.6306 151.341 58.7247 151.745 59.6849C151.979 60.2299 152.35 60.7048 152.822 61.0629C153.238 61.3728 153.72 61.5831 154.23 61.6777C154.979 61.8158 155.753 61.6978 156.426 61.3428C156.901 61.0926 157.117 60.8721 157.139 60.8933C157.16 60.9145 157.092 60.9569 156.986 61.0545C156.831 61.2012 156.659 61.328 156.473 61.4318C155.287 62.1188 153.807 62.0407 152.699 61.2325C151.593 60.4319 151.047 59.0642 151.3 57.7218C151.581 56.1916 152.832 55.0266 154.378 54.8556C155.077 54.7712 155.785 54.8997 156.409 55.2244C156.973 55.5182 157.447 55.9574 157.783 56.4965C158.507 57.6587 158.482 59.1371 157.719 60.2743C157.598 60.4519 157.456 60.6142 157.295 60.7576C157.202 60.8552 157.143 60.9018 157.139 60.8933Z" fill="#263238"/>
<path fill-rule="evenodd" clip-rule="evenodd" d="M130.643 84.6373C130.596 84.5865 134.073 81.2453 138.415 77.2131C142.757 73.1809 146.314 69.9245 146.361 69.9754C146.407 70.0263 142.93 73.3674 138.589 77.3996C134.247 81.4319 130.69 84.6882 130.643 84.6373Z" fill="#263238"/>
<path fill-rule="evenodd" clip-rule="evenodd" d="M132.559 64.4041L132.703 64.0903L132.89 64.3786C133.042 64.6089 133.257 64.7913 133.509 64.9044L133.827 65.0443L133.539 65.2351C133.306 65.3864 133.122 65.6012 133.009 65.8541L132.869 66.1679L132.678 65.8796C132.526 65.6486 132.311 65.4661 132.059 65.3538L131.745 65.2139L132.034 65.0231C132.266 64.8729 132.449 64.6576 132.559 64.4041V64.4041Z" fill="#1A4F8B"/>
<path fill-rule="evenodd" clip-rule="evenodd" d="M123.1 62.0466L123.18 61.8643L123.291 62.0296C123.378 62.1648 123.503 62.271 123.651 62.3349L123.833 62.4197L123.664 62.53C123.531 62.6176 123.425 62.7411 123.359 62.8861L123.278 63.0727L123.168 62.9031C123.08 62.7679 122.955 62.6617 122.807 62.5978L122.625 62.513L122.79 62.407C122.925 62.3176 123.032 62.1929 123.1 62.0466V62.0466Z" fill="#1A4F8B"/>
<path fill-rule="evenodd" clip-rule="evenodd" d="M152.894 78.1713L152.975 77.989L153.085 78.1586C153.176 78.2907 153.3 78.3961 153.446 78.4639L153.628 78.5445L153.462 78.6547C153.327 78.742 153.221 78.8674 153.157 79.0151L153.072 79.1974L152.962 79.0321C152.875 78.8973 152.752 78.7899 152.606 78.7225L152.419 78.642L152.589 78.5317C152.724 78.4444 152.83 78.319 152.894 78.1713Z" fill="#1A4F8B"/>
<path fill-rule="evenodd" clip-rule="evenodd" d="M167.48 69.9033L167.62 69.5896L167.811 69.8779C167.962 70.109 168.177 70.2915 168.43 70.4036L168.743 70.5436L168.455 70.7344C168.224 70.8857 168.041 71.1007 167.929 71.3534L167.785 71.6672L167.599 71.3789C167.445 71.1496 167.231 70.9676 166.98 70.8531L166.662 70.7132L166.95 70.5224C167.182 70.3711 167.366 70.1562 167.48 69.9033Z" fill="#1A4F8B"/>
<path fill-rule="evenodd" clip-rule="evenodd" d="M165.585 58.3196L165.822 57.7896L166.14 58.2772C166.396 58.6649 166.756 58.9722 167.179 59.1634L167.709 59.3966L167.221 59.7146C166.834 59.9726 166.527 60.334 166.335 60.7576L166.098 61.2876L165.78 60.8C165.524 60.4124 165.164 60.1051 164.741 59.9139L164.211 59.6764L164.699 59.3584C165.086 59.1029 165.393 58.7427 165.585 58.3196V58.3196Z" fill="#1A4F8B"/>
<path fill-rule="evenodd" clip-rule="evenodd" d="M129.621 54.7496L129.858 54.2196L130.176 54.7029C130.431 55.0917 130.791 55.3993 131.215 55.5891L131.745 55.8265L131.262 56.1445C130.872 56.3975 130.564 56.7584 130.376 57.1833L130.138 57.7133L129.82 57.23C129.565 56.8401 129.203 56.5323 128.777 56.3438L128.251 56.1064L128.735 55.7884C129.124 55.5341 129.431 55.1736 129.621 54.7496V54.7496Z" fill="#1A4F8B"/>
<path fill-rule="evenodd" clip-rule="evenodd" d="M174.637 135.483C174.637 135.483 174.773 135.483 175.036 135.449C175.201 135.447 175.366 135.428 175.527 135.394L175.837 135.343L176.189 135.25C176.805 135.091 177.389 134.831 177.919 134.479C179.082 133.717 179.95 132.58 180.378 131.256C180.549 130.715 180.643 130.153 180.658 129.586C180.658 129.289 180.658 128.979 180.658 128.674L180.632 128.208C180.632 128.051 180.586 127.894 180.56 127.737C180.437 127.081 180.21 126.45 179.886 125.867C179.153 124.57 177.963 123.59 176.549 123.12C175.781 122.874 174.976 122.768 174.171 122.806H171.601L116.74 122.84C115.421 122.841 114.139 123.278 113.093 124.082C112.583 124.481 112.137 124.955 111.771 125.49C111.414 126.026 111.147 126.616 110.978 127.237C110.894 127.546 110.833 127.86 110.795 128.178C110.795 128.496 110.753 128.814 110.761 129.14C110.743 129.776 110.82 130.41 110.99 131.023C111.165 131.624 111.43 132.196 111.775 132.719C112.131 133.232 112.559 133.69 113.047 134.08C113.532 134.465 114.076 134.77 114.658 134.983C114.944 135.09 115.237 135.176 115.536 135.242C115.837 135.298 116.141 135.333 116.447 135.348C117.673 135.377 118.911 135.348 120.123 135.348H127.251L151.915 135.369L168.544 135.407L173.064 135.428H174.243H174.641C174.641 135.428 174.506 135.428 174.243 135.428H173.064L168.544 135.449L151.915 135.483L127.251 135.509H120.119C118.902 135.509 117.681 135.509 116.43 135.509C116.115 135.494 115.8 135.459 115.489 135.403C115.179 135.334 114.875 135.243 114.577 135.131C113.975 134.912 113.413 134.597 112.911 134.199C111.883 133.394 111.14 132.281 110.791 131.023C110.617 130.391 110.537 129.736 110.554 129.081C110.554 128.759 110.554 128.424 110.588 128.097C110.628 127.768 110.692 127.442 110.778 127.122C110.955 126.477 111.232 125.865 111.601 125.307C111.98 124.752 112.443 124.26 112.975 123.849C114.059 123.02 115.387 122.573 116.753 122.577L171.614 122.606H174.183C175.005 122.574 175.825 122.685 176.609 122.933C178.048 123.423 179.256 124.427 180.001 125.753C180.33 126.349 180.561 126.995 180.683 127.665L180.755 128.144C180.755 128.305 180.755 128.462 180.755 128.619C180.755 128.933 180.755 129.234 180.755 129.539C180.737 130.115 180.638 130.686 180.463 131.235C180.297 131.73 180.07 132.203 179.789 132.643C179.317 133.383 178.689 134.011 177.948 134.483C177.409 134.832 176.816 135.09 176.193 135.246L175.837 135.331L175.523 135.377C175.361 135.407 175.196 135.422 175.031 135.424L174.637 135.483Z" fill="#263238"/>
<path fill-rule="evenodd" clip-rule="evenodd" d="M110.651 144.585V144.294C110.651 142.614 111.245 141.18 112.433 139.992C113.621 138.804 115.055 138.21 116.736 138.21H174.637C176.317 138.21 177.751 138.804 178.939 139.992C180.127 141.18 180.721 142.614 180.721 144.294L180.721 144.585L180.721 144.875C180.721 146.555 180.127 147.989 178.939 149.177C177.751 150.365 176.317 150.959 174.637 150.959H116.736C115.055 150.959 113.621 150.365 112.433 149.177C111.245 147.989 110.651 146.555 110.651 144.875V144.585Z" fill="#1A4F8B"/>
<path fill-rule="evenodd" clip-rule="evenodd" d="M124.72 131.65C124.711 131.525 124.711 131.399 124.72 131.273C124.72 131.01 124.72 130.667 124.698 130.243C124.698 129.335 124.673 128.08 124.652 126.567L124.741 126.651L117.164 126.677L117.274 126.567V127.898C117.274 128.322 117.274 128.771 117.274 129.195C117.274 130.043 117.274 130.866 117.274 131.642L117.172 131.54L122.604 131.591L124.173 131.617H124.597H124.749C124.572 131.637 124.393 131.645 124.215 131.642L122.667 131.667L117.155 131.718H117.024V131.617C117.024 130.841 117.024 130.022 117.024 129.17C117.024 128.746 117.024 128.322 117.024 127.873V126.575C116.926 126.673 117.16 126.439 117.134 126.461L124.711 126.486H124.8V126.575C124.779 128.114 124.762 129.386 124.754 130.306C124.754 130.73 124.754 131.061 124.728 131.32C124.733 131.43 124.73 131.541 124.72 131.65Z" fill="#263238"/>
<path fill-rule="evenodd" clip-rule="evenodd" d="M124.719 126.567C124.392 126.931 124.037 127.271 123.659 127.584C122.99 128.195 122.048 129.022 121.005 129.929H120.84L120.814 129.908L120.764 129.865L120.666 129.781L120.475 129.615L120.102 129.289L119.394 128.665L118.207 127.605C117.829 127.293 117.475 126.953 117.147 126.588C117.552 126.85 117.936 127.144 118.296 127.466L119.513 128.492L120.229 129.102L120.607 129.424L120.802 129.594L120.895 129.679L120.946 129.717L120.971 129.738H120.84C121.887 128.835 122.841 128.042 123.541 127.444C123.91 127.121 124.304 126.828 124.72 126.567H124.719Z" fill="#263238"/>
<path fill-rule="evenodd" clip-rule="evenodd" d="M119.878 128.933C119.511 129.46 119.084 129.942 118.606 130.37C118.173 130.847 117.688 131.274 117.16 131.642C117.529 131.117 117.955 130.635 118.432 130.205C118.865 129.729 119.35 129.302 119.878 128.933Z" fill="#263238"/>
<path fill-rule="evenodd" clip-rule="evenodd" d="M124.72 131.65C124.214 131.25 123.758 130.792 123.359 130.285C122.905 129.828 122.504 129.322 122.163 128.776C122.667 129.178 123.123 129.636 123.524 130.141C123.979 130.597 124.38 131.103 124.72 131.65H124.72Z" fill="#263238"/>
<path fill-rule="evenodd" clip-rule="evenodd" d="M129.295 130.124V130.294H127.535V127.75H129.231V127.919H127.713V128.924H129.07V129.09H127.713V130.133L129.295 130.124Z" fill="#263238"/>
<path fill-rule="evenodd" clip-rule="evenodd" d="M133.038 129.183V130.294H132.856V129.196C132.856 128.772 132.631 128.538 132.263 128.538C132.067 128.53 131.878 128.607 131.744 128.749C131.611 128.892 131.546 129.086 131.567 129.28V130.294H131.385V129.196C131.385 128.772 131.16 128.538 130.791 128.538C130.596 128.53 130.407 128.607 130.273 128.75C130.139 128.892 130.075 129.086 130.096 129.28V130.294H129.914V128.39H130.087V128.814C130.221 128.537 130.51 128.37 130.817 128.39C131.126 128.364 131.413 128.553 131.512 128.848C131.651 128.553 131.954 128.373 132.28 128.39C132.491 128.375 132.699 128.454 132.845 128.608C132.992 128.761 133.063 128.972 133.038 129.183Z" fill="#263238"/>
<path fill-rule="evenodd" clip-rule="evenodd" d="M135.158 129.085V130.294H134.985V129.954C134.839 130.191 134.575 130.327 134.298 130.306C133.874 130.306 133.615 130.09 133.615 129.764C133.615 129.437 133.797 129.234 134.323 129.234H134.976V129.081C134.992 128.929 134.937 128.778 134.827 128.672C134.717 128.566 134.564 128.517 134.412 128.538C134.172 128.536 133.938 128.62 133.755 128.776L133.666 128.644C133.879 128.468 134.148 128.373 134.425 128.377C134.622 128.348 134.822 128.413 134.965 128.551C135.109 128.69 135.18 128.887 135.158 129.085H135.158ZM134.976 129.73V129.374H134.327C133.933 129.374 133.797 129.539 133.797 129.755C133.797 129.971 133.988 130.158 134.323 130.158C134.612 130.175 134.877 130.001 134.976 129.73H134.976Z" fill="#263238"/>
<path fill-rule="evenodd" clip-rule="evenodd" d="M135.849 127.847C135.849 127.791 135.872 127.737 135.912 127.697C135.951 127.657 136.005 127.635 136.061 127.635C136.179 127.635 136.273 127.73 136.273 127.847C136.273 127.964 136.179 128.059 136.062 128.059C135.944 128.059 135.85 127.964 135.849 127.847ZM135.905 128.39H136.329V130.294H135.941L135.905 128.39Z" fill="#263238"/>
<path fill-rule="evenodd" clip-rule="evenodd" d="M136.854 127.589H137.278V130.294H136.854V127.589Z" fill="#263238"/>
<path fill-rule="evenodd" clip-rule="evenodd" d="M131.724 146.295L131.037 145.333C130.944 145.339 130.851 145.339 130.757 145.333H129.935V146.274H129.744V143.408H130.774C131.495 143.408 131.932 143.768 131.932 144.379C131.952 144.801 131.669 145.179 131.258 145.278L131.979 146.283L131.724 146.295ZM130.757 145.172C131.372 145.172 131.703 144.883 131.703 144.392C131.703 143.9 131.372 143.607 130.757 143.607H129.935V145.172H130.757Z" fill="white"/>
<path fill-rule="evenodd" clip-rule="evenodd" d="M134.429 145.274H132.585C132.584 145.509 132.682 145.734 132.854 145.895C133.026 146.056 133.257 146.138 133.492 146.122C133.754 146.131 134.006 146.022 134.179 145.825L134.298 145.96C134.094 146.193 133.796 146.321 133.488 146.308C133.193 146.323 132.907 146.213 132.697 146.006C132.487 145.799 132.374 145.513 132.385 145.218C132.361 144.837 132.55 144.473 132.877 144.275C133.204 144.077 133.614 144.077 133.941 144.275C134.268 144.473 134.458 144.837 134.433 145.218C134.433 145.218 134.429 145.252 134.429 145.274ZM132.589 145.112H134.234C134.234 144.658 133.866 144.29 133.411 144.29C132.957 144.29 132.589 144.658 132.589 145.112Z" fill="white"/>
<path fill-rule="evenodd" clip-rule="evenodd" d="M134.756 146.037L134.849 145.871C135.071 146.04 135.342 146.131 135.621 146.13C136.074 146.13 136.257 145.973 136.257 145.727C136.257 145.104 134.832 145.566 134.832 144.722C134.832 144.4 135.103 144.137 135.646 144.137C135.907 144.132 136.164 144.205 136.384 144.345L136.286 144.51C136.097 144.38 135.872 144.312 135.642 144.315C135.218 144.315 135.04 144.489 135.04 144.718C135.04 145.363 136.46 144.909 136.46 145.727C136.46 146.075 136.159 146.312 135.612 146.312C135.303 146.322 135.001 146.225 134.756 146.037V146.037Z" fill="white"/>
<path fill-rule="evenodd" clip-rule="evenodd" d="M138.847 145.274H137.003C137.002 145.509 137.1 145.734 137.272 145.895C137.444 146.056 137.675 146.138 137.91 146.122C138.172 146.131 138.424 146.022 138.597 145.825L138.716 145.96C138.512 146.192 138.214 146.319 137.906 146.308C137.611 146.323 137.324 146.213 137.114 146.006C136.904 145.799 136.789 145.513 136.799 145.218C136.783 144.935 136.884 144.658 137.079 144.453C137.275 144.247 137.546 144.131 137.83 144.133C138.111 144.13 138.381 144.245 138.575 144.449C138.769 144.653 138.869 144.929 138.851 145.21C138.851 145.21 138.847 145.252 138.847 145.274ZM137.007 145.112H138.648C138.617 144.682 138.259 144.349 137.828 144.349C137.396 144.349 137.038 144.682 137.007 145.112Z" fill="white"/>
<path fill-rule="evenodd" clip-rule="evenodd" d="M140.552 146.16C140.433 146.259 140.283 146.313 140.128 146.312C139.968 146.329 139.81 146.272 139.697 146.159C139.585 146.045 139.529 145.886 139.547 145.727V144.328H139.152V144.15H139.547V143.684H139.75V144.15H140.433V144.328H139.75V145.71C139.75 145.986 139.886 146.134 140.149 146.134C140.271 146.138 140.391 146.096 140.484 146.016L140.552 146.16Z" fill="white"/>
<path fill-rule="evenodd" clip-rule="evenodd" d="M144.436 144.392C144.436 144.994 144.012 145.354 143.278 145.354H142.464V146.295H142.252V143.408H143.287C143.999 143.408 144.436 143.781 144.436 144.392ZM144.224 144.392C144.224 143.891 143.893 143.607 143.278 143.607H142.464V145.168H143.287C143.893 145.168 144.224 144.883 144.224 144.392Z" fill="white"/>
<path fill-rule="evenodd" clip-rule="evenodd" d="M146.606 144.934V146.295H146.407V145.914C146.247 146.183 145.948 146.337 145.635 146.312C145.156 146.312 144.864 146.066 144.864 145.702C144.864 145.337 145.067 145.1 145.665 145.1H146.399V144.93C146.417 144.758 146.356 144.587 146.231 144.467C146.107 144.347 145.934 144.291 145.763 144.315C145.491 144.312 145.227 144.409 145.021 144.587L144.919 144.438C145.158 144.242 145.458 144.136 145.767 144.137C145.991 144.102 146.219 144.172 146.383 144.329C146.548 144.485 146.63 144.709 146.606 144.934ZM146.399 145.664V145.261H145.669C145.224 145.261 145.067 145.447 145.067 145.685C145.067 145.922 145.284 146.134 145.665 146.134C145.987 146.157 146.285 145.965 146.399 145.664H146.399Z" fill="white"/>
<path fill-rule="evenodd" clip-rule="evenodd" d="M147.128 146.037L147.221 145.871C147.442 146.042 147.714 146.133 147.993 146.13C148.447 146.13 148.625 145.973 148.625 145.727C148.625 145.104 147.204 145.566 147.204 144.722C147.204 144.4 147.476 144.137 148.018 144.137C148.278 144.132 148.534 144.204 148.752 144.345L148.659 144.51C148.469 144.38 148.244 144.312 148.014 144.315C147.59 144.315 147.408 144.489 147.408 144.718C147.408 145.363 148.832 144.909 148.832 145.727C148.832 146.075 148.531 146.312 147.984 146.312C147.676 146.323 147.373 146.225 147.128 146.037Z" fill="white"/>
<path fill-rule="evenodd" clip-rule="evenodd" d="M149.099 146.037L149.193 145.871C149.415 146.04 149.686 146.131 149.964 146.13C150.418 146.13 150.6 145.973 150.6 145.727C150.6 145.104 149.176 145.566 149.176 144.722C149.176 144.4 149.447 144.137 149.99 144.137C150.251 144.132 150.508 144.205 150.728 144.345L150.63 144.51C150.441 144.38 150.216 144.312 149.986 144.315C149.562 144.315 149.384 144.489 149.384 144.718C149.384 145.363 150.804 144.909 150.804 145.727C150.804 146.075 150.503 146.312 149.956 146.312C149.647 146.322 149.345 146.225 149.099 146.037V146.037Z" fill="white"/>
<path fill-rule="evenodd" clip-rule="evenodd" d="M154.404 144.15L153.59 146.295H153.395L152.674 144.434L151.945 146.295H151.758L150.944 144.15H151.139L151.856 146.066L152.589 144.15H152.763L153.492 146.062L154.213 144.15H154.404Z" fill="white"/>
<path fill-rule="evenodd" clip-rule="evenodd" d="M154.586 145.223C154.595 144.632 155.081 144.16 155.671 144.167C156.262 144.174 156.736 144.657 156.731 145.248C156.727 145.839 156.245 146.315 155.655 146.312C155.365 146.321 155.085 146.208 154.882 146.001C154.679 145.794 154.572 145.512 154.586 145.223ZM156.52 145.223C156.49 144.763 156.098 144.411 155.637 144.431C155.177 144.45 154.816 144.834 154.825 145.295C154.835 145.756 155.211 146.125 155.672 146.126C155.906 146.126 156.131 146.029 156.292 145.858C156.452 145.687 156.535 145.457 156.52 145.223Z" fill="white"/>
<path fill-rule="evenodd" clip-rule="evenodd" d="M158.381 144.137V144.337H158.33C157.855 144.337 157.571 144.655 157.571 145.185V146.3H157.368V144.154H157.563V144.625C157.702 144.303 158.032 144.107 158.381 144.137H158.381Z" fill="white"/>
<path fill-rule="evenodd" clip-rule="evenodd" d="M160.832 143.247V146.295H160.632V145.791C160.465 146.12 160.123 146.323 159.755 146.312C159.18 146.276 158.733 145.8 158.733 145.225C158.733 144.649 159.18 144.173 159.755 144.137C160.12 144.128 160.459 144.327 160.628 144.65V143.247H160.832ZM160.628 145.223C160.598 144.763 160.206 144.411 159.746 144.431C159.285 144.45 158.925 144.834 158.934 145.295C158.943 145.756 159.319 146.125 159.78 146.126C160.015 146.126 160.239 146.029 160.4 145.858C160.561 145.687 160.643 145.457 160.628 145.223Z" fill="white"/>
<path fill-rule="evenodd" clip-rule="evenodd" d="M188.188 35.8477C188.188 35.9618 168.587 36.0597 144.41 36.0597C120.234 36.0597 100.632 35.9618 100.632 35.8477C100.632 35.7335 120.229 35.6357 144.41 35.6357C168.591 35.6357 188.188 35.7335 188.188 35.8477Z" fill="#263238"/>
<path fill-rule="evenodd" clip-rule="evenodd" d="M105.576 32.2691C105.574 32.8563 105.096 33.3306 104.509 33.3291C103.922 33.3276 103.447 32.8507 103.448 32.2635C103.448 31.6763 103.925 31.2006 104.512 31.2006C104.795 31.2006 105.066 31.3133 105.266 31.5138C105.465 31.7143 105.577 31.9861 105.576 32.2691H105.576Z" fill="#263238"/>
<path fill-rule="evenodd" clip-rule="evenodd" d="M108.654 32.2691C108.652 32.8563 108.174 33.3306 107.587 33.3291C107 33.3275 106.525 32.8507 106.526 32.2635C106.527 31.6763 107.003 31.2006 107.59 31.2006C107.873 31.2006 108.144 31.3133 108.344 31.5138C108.544 31.7143 108.655 31.9861 108.654 32.2691Z" fill="#263238"/>
<path fill-rule="evenodd" clip-rule="evenodd" d="M111.715 32.2691C111.714 32.7003 111.452 33.0878 111.053 33.2504C110.653 33.4131 110.195 33.3186 109.893 33.0112C109.59 32.7039 109.503 32.2444 109.672 31.8477C109.841 31.451 110.233 31.1955 110.664 31.2006C111.248 31.2076 111.718 31.6846 111.715 32.2691Z" fill="#263238"/>
<path fill-rule="evenodd" clip-rule="evenodd" d="M188.345 161.852C188.345 160.945 188.303 107.181 188.243 28.9789L188.345 29.0806H100.666L100.776 28.9704C100.776 79.1126 100.776 125.341 100.751 161.844L100.666 161.759L188.353 161.844L100.666 161.933H100.577V161.844C100.577 125.341 100.577 79.1126 100.556 28.9704V28.8601H100.675H188.353H188.455V28.9619C188.387 107.181 188.345 160.949 188.345 161.852Z" fill="#263238"/>
<path fill-rule="evenodd" clip-rule="evenodd" d="M186.742 197.68C186.723 197.62 186.699 197.562 186.67 197.506C186.611 197.383 186.535 197.222 186.437 197.01C186.153 196.368 185.924 195.703 185.754 195.022C185.207 192.491 185.226 189.87 185.81 187.347C186.174 185.599 186.65 183.875 187.234 182.187C187.836 180.36 188.54 178.418 189.108 176.319C189.756 174.127 190.069 171.85 190.037 169.565C189.948 167.177 189.244 164.795 188.464 162.42C187.684 160.046 186.887 157.722 186.645 155.386C186.374 153.141 186.819 150.868 187.917 148.89C188.947 146.995 190.24 145.371 191.211 143.692C192.115 142.134 192.783 140.451 193.191 138.697C193.773 136.154 193.815 133.516 193.314 130.955C193.136 130.019 192.866 129.103 192.509 128.22C192.519 128.282 192.534 128.343 192.555 128.403C192.598 128.534 192.649 128.708 192.721 128.928C192.923 129.601 193.09 130.283 193.221 130.972C193.683 133.52 193.615 136.135 193.022 138.655C192.608 140.39 191.938 142.053 191.033 143.59C190.067 145.248 188.769 146.864 187.718 148.78C186.584 150.794 186.12 153.116 186.39 155.411C186.632 157.786 187.438 160.126 188.214 162.496C188.99 164.867 189.689 167.228 189.778 169.573C189.813 171.833 189.509 174.086 188.875 176.255C188.311 178.346 187.603 180.287 187.022 182.123C186.442 183.821 185.975 185.554 185.623 187.313C184.97 190.544 185.157 193.275 185.644 195.047C185.827 195.729 186.071 196.393 186.373 197.031L186.632 197.519C186.663 197.576 186.7 197.631 186.742 197.68Z" fill="#263238"/>
<path fill-rule="evenodd" clip-rule="evenodd" d="M189.914 145.333C189.914 145.333 191.881 139.041 188.349 135.356C188.294 135.295 188.208 135.271 188.128 135.295C188.049 135.318 187.99 135.385 187.976 135.466C187.79 136.505 187.552 139.668 189.914 145.333Z" fill="#1A4F8B"/>
<path fill-rule="evenodd" clip-rule="evenodd" d="M188.735 137.472C188.739 137.863 188.783 138.252 188.867 138.634C188.994 139.435 189.146 140.372 189.316 141.411C189.486 142.45 189.63 143.387 189.74 144.184C189.771 144.573 189.841 144.958 189.948 145.333C189.982 144.943 189.969 144.55 189.91 144.163C189.846 143.446 189.719 142.467 189.541 141.369C189.363 140.27 189.176 139.308 189.019 138.604C188.966 138.218 188.871 137.838 188.735 137.472Z" fill="#263238"/>
<path fill-rule="evenodd" clip-rule="evenodd" d="M187.603 160.169C187.603 160.169 186.399 153.69 181.557 152.083C181.479 152.058 181.394 152.078 181.335 152.134C181.277 152.191 181.254 152.276 181.277 152.354C181.595 153.359 182.867 156.268 187.603 160.169Z" fill="#1A4F8B"/>
<path fill-rule="evenodd" clip-rule="evenodd" d="M182.876 153.758C183.062 154.1 183.282 154.422 183.533 154.72L185.229 156.963C185.86 157.811 186.429 158.566 186.925 159.21C187.139 159.537 187.38 159.845 187.646 160.131C187.493 159.77 187.3 159.429 187.069 159.113C186.675 158.507 186.098 157.693 185.432 156.815C184.767 155.937 184.16 155.166 183.681 154.614C183.445 154.3 183.175 154.013 182.876 153.758V153.758Z" fill="#263238"/>
<path fill-rule="evenodd" clip-rule="evenodd" d="M188.909 176.429C188.909 176.429 189.643 169.878 185.475 166.936C185.408 166.888 185.32 166.882 185.247 166.92C185.174 166.957 185.128 167.032 185.127 167.114C185.14 168.17 185.513 171.32 188.909 176.429Z" fill="#1A4F8B"/>
<path fill-rule="evenodd" clip-rule="evenodd" d="M186.251 168.92C186.327 169.303 186.445 169.677 186.602 170.035C186.882 170.794 187.209 171.689 187.569 172.672C187.93 173.656 188.256 174.551 188.532 175.314C188.638 175.688 188.78 176.052 188.956 176.399C188.917 176.01 188.83 175.627 188.697 175.259C188.498 174.568 188.184 173.618 187.802 172.588C187.421 171.557 187.048 170.633 186.764 169.972C186.631 169.604 186.459 169.251 186.251 168.92V168.92Z" fill="#263238"/>
<path fill-rule="evenodd" clip-rule="evenodd" d="M185.263 192.787C185.263 192.787 185.759 186.211 181.489 183.421C181.421 183.374 181.332 183.369 181.26 183.41C181.187 183.451 181.145 183.529 181.15 183.612C181.201 184.663 181.684 187.801 185.263 192.787Z" fill="#1A4F8B"/>
<path fill-rule="evenodd" clip-rule="evenodd" d="M182.32 185.384C182.417 185.763 182.549 186.132 182.714 186.486C183.02 187.237 183.38 188.115 183.779 189.086C184.177 190.056 184.529 190.943 184.834 191.689C184.951 192.061 185.106 192.421 185.297 192.762C185.24 192.374 185.139 191.994 184.996 191.63C184.771 190.947 184.423 190.01 184.003 188.992C183.584 187.975 183.181 187.067 182.871 186.414C182.729 186.05 182.544 185.705 182.32 185.384V185.384Z" fill="#263238"/>
<path fill-rule="evenodd" clip-rule="evenodd" d="M192.742 139.804C192.742 139.804 198.585 136.751 198.699 131.65C198.701 131.568 198.656 131.492 198.584 131.453C198.512 131.414 198.424 131.418 198.356 131.464C197.487 132.066 195.082 134.131 192.742 139.804Z" fill="#1A4F8B"/>
<path fill-rule="evenodd" clip-rule="evenodd" d="M197.487 133.406C197.21 133.682 196.966 133.987 196.757 134.317L195.108 136.594C194.493 137.442 193.933 138.214 193.454 138.867C193.207 139.168 192.984 139.488 192.789 139.825C193.09 139.576 193.361 139.291 193.594 138.977C194.056 138.422 194.667 137.633 195.29 136.738C195.913 135.844 196.494 135.042 196.884 134.415C197.12 134.101 197.322 133.762 197.487 133.406L197.487 133.406Z" fill="#263238"/>
<path fill-rule="evenodd" clip-rule="evenodd" d="M186.467 153.317C186.467 153.317 192.496 150.616 192.92 145.528C192.93 145.445 192.891 145.364 192.82 145.32C192.75 145.275 192.66 145.276 192.589 145.32C191.674 145.88 189.146 147.796 186.467 153.317Z" fill="#1A4F8B"/>
<path fill-rule="evenodd" clip-rule="evenodd" d="M191.589 147.224C191.301 147.479 191.039 147.764 190.809 148.072L189.024 150.243L187.238 152.414C186.97 152.696 186.727 153.003 186.513 153.33C186.827 153.097 187.111 152.828 187.361 152.528C187.858 152.002 188.515 151.256 189.21 150.408C189.905 149.56 190.516 148.767 190.94 148.186C191.194 147.892 191.411 147.569 191.589 147.224H191.589Z" fill="#263238"/>
<path fill-rule="evenodd" clip-rule="evenodd" d="M189.927 168.386C189.927 168.386 194.061 163.251 192.123 158.532C192.092 158.455 192.022 158.402 191.94 158.394C191.857 158.386 191.778 158.425 191.733 158.494C191.177 159.393 189.804 162.255 189.927 168.386Z" fill="#1A4F8B"/>
<path fill-rule="evenodd" clip-rule="evenodd" d="M191.712 160.622C191.573 160.987 191.472 161.365 191.411 161.75C191.237 162.543 191.037 163.472 190.813 164.498L190.211 167.241C190.1 167.615 190.024 167.998 189.982 168.386C190.159 168.038 190.292 167.669 190.376 167.288C190.58 166.592 190.825 165.626 191.054 164.553C191.283 163.48 191.478 162.496 191.58 161.784C191.667 161.403 191.711 161.013 191.712 160.622V160.622Z" fill="#263238"/>
<path fill-rule="evenodd" clip-rule="evenodd" d="M185.835 186.122C185.835 186.122 191.805 183.332 192.144 178.24C192.15 178.158 192.11 178.08 192.04 178.038C191.97 177.996 191.883 177.997 191.813 178.04C190.919 178.6 188.426 180.559 185.835 186.122Z" fill="#1A4F8B"/>
<path fill-rule="evenodd" clip-rule="evenodd" d="M190.855 179.94C190.571 180.207 190.314 180.5 190.088 180.818L188.345 183.022C187.688 183.845 187.099 184.587 186.59 185.219C186.327 185.506 186.092 185.817 185.886 186.147C186.2 185.911 186.485 185.638 186.734 185.333C187.221 184.799 187.866 184.04 188.544 183.175C189.223 182.31 189.816 181.513 190.24 180.924C190.481 180.619 190.687 180.289 190.855 179.94Z" fill="#263238"/>
<path fill-rule="evenodd" clip-rule="evenodd" d="M173.942 160.207C173.942 160.207 173.942 160.258 173.942 160.351C173.942 160.444 173.942 160.605 173.942 160.775C173.963 161.174 173.984 161.708 174.014 162.374C174.09 163.781 174.2 165.74 174.328 168.085C174.752 170.468 175.969 173.113 177.601 175.679C178.797 177.57 180.052 179.291 181.137 180.89C182.12 182.286 183.004 183.75 183.783 185.27C184.297 186.3 184.713 187.376 185.025 188.483C185.131 188.878 185.208 189.183 185.254 189.395C185.272 189.504 185.302 189.611 185.343 189.713C185.336 189.602 185.322 189.492 185.301 189.382C185.271 189.17 185.208 188.857 185.118 188.458C184.837 187.333 184.442 186.239 183.94 185.193C183.18 183.653 182.305 182.172 181.324 180.762C180.251 179.151 179 177.43 177.809 175.547C176.189 173.003 174.981 170.391 174.535 168.042C174.37 165.698 174.23 163.743 174.133 162.34C174.077 161.674 174.035 161.14 174.005 160.741C174.005 160.576 173.972 160.436 173.963 160.317C173.959 160.28 173.952 160.243 173.942 160.207Z" fill="#263238"/>
<path fill-rule="evenodd" clip-rule="evenodd" d="M177.495 175.208C177.495 175.208 174.951 169.119 178.148 165.13C178.198 165.064 178.281 165.032 178.363 165.048C178.444 165.064 178.509 165.126 178.529 165.206C178.814 166.215 179.352 169.344 177.495 175.208Z" fill="#1A4F8B"/>
<path fill-rule="evenodd" clip-rule="evenodd" d="M177.957 167.245C177.848 167.621 177.781 168.008 177.758 168.399C177.669 169.111 177.567 170.095 177.486 171.201C177.406 172.308 177.372 173.292 177.372 174.017C177.346 174.407 177.371 174.799 177.444 175.183C177.512 174.799 177.546 174.41 177.546 174.021C177.601 173.211 177.665 172.265 177.732 171.218C177.8 170.171 177.872 169.221 177.932 168.411C177.979 168.024 177.987 167.634 177.957 167.245Z" fill="#263238"/>
<g opacity="0.3">
<path fill-rule="evenodd" clip-rule="evenodd" d="M177.495 175.208C177.495 175.208 174.951 169.119 178.148 165.13C178.198 165.064 178.281 165.032 178.363 165.048C178.444 165.064 178.509 165.126 178.529 165.206C178.814 166.215 179.352 169.344 177.495 175.208Z" fill="black"/>
</g>
<path fill-rule="evenodd" clip-rule="evenodd" d="M185.33 189.87C185.33 189.87 183.304 183.595 186.798 179.876C186.854 179.818 186.938 179.796 187.016 179.818C187.094 179.84 187.153 179.903 187.171 179.982C187.37 181.021 187.637 184.184 185.33 189.87Z" fill="#1A4F8B"/>
<path fill-rule="evenodd" clip-rule="evenodd" d="M186.433 181.992C186.294 182.357 186.195 182.737 186.14 183.124C185.992 183.828 185.814 184.82 185.644 185.893C185.475 186.966 185.36 187.97 185.301 188.691C185.253 189.08 185.253 189.473 185.301 189.861C185.398 189.485 185.464 189.1 185.496 188.712C185.615 187.911 185.754 186.97 185.92 185.931C186.085 184.892 186.221 183.955 186.344 183.154C186.413 182.771 186.443 182.381 186.433 181.992Z" fill="#263238"/>
<g opacity="0.3">
<path fill-rule="evenodd" clip-rule="evenodd" d="M185.33 189.87C185.33 189.87 183.304 183.595 186.798 179.876C186.854 179.818 186.938 179.796 187.016 179.818C187.094 179.84 187.153 179.903 187.171 179.982C187.37 181.021 187.637 184.184 185.33 189.87Z" fill="black"/>
</g>
<path fill-rule="evenodd" clip-rule="evenodd" d="M174.264 167.758C174.264 167.758 168.862 163.976 169.409 158.905C169.416 158.823 169.468 158.752 169.545 158.721C169.621 158.69 169.708 158.706 169.77 158.761C170.567 159.469 172.687 161.831 174.264 167.758Z" fill="#1A4F8B"/>
<g opacity="0.3">
<path fill-rule="evenodd" clip-rule="evenodd" d="M174.264 167.758C174.264 167.758 168.862 163.976 169.409 158.905C169.416 158.823 169.468 158.752 169.545 158.721C169.621 158.69 169.708 158.706 169.77 158.761C170.567 159.469 172.687 161.831 174.264 167.758Z" fill="black"/>
</g>
<path fill-rule="evenodd" clip-rule="evenodd" d="M170.397 160.792C170.507 161.167 170.657 161.528 170.847 161.869C171.152 162.522 171.601 163.412 172.119 164.379C172.636 165.346 173.145 166.211 173.531 166.817C173.722 167.159 173.952 167.478 174.217 167.767C174.072 167.404 173.894 167.057 173.683 166.728C173.293 166.02 172.835 165.185 172.335 164.265L170.995 161.793C170.83 161.44 170.63 161.105 170.397 160.792H170.397Z" fill="#263238"/>
<path fill-rule="evenodd" clip-rule="evenodd" d="M183.168 183.65C183.168 183.65 176.655 182.632 174.913 177.841C174.882 177.765 174.898 177.678 174.953 177.617C175.008 177.556 175.092 177.531 175.171 177.553C176.172 177.841 179.115 179.024 183.168 183.65Z" fill="#1A4F8B"/>
<g opacity="0.3">
<path fill-rule="evenodd" clip-rule="evenodd" d="M183.168 183.65C183.168 183.65 176.655 182.632 174.913 177.841C174.882 177.765 174.898 177.678 174.953 177.617C175.008 177.556 175.092 177.531 175.171 177.553C176.172 177.841 179.115 179.024 183.168 183.65Z" fill="black"/>
</g>
<path fill-rule="evenodd" clip-rule="evenodd" d="M176.605 179.109C176.867 179.399 177.161 179.658 177.482 179.88C178.046 180.33 178.839 180.932 179.734 181.576C180.628 182.221 181.464 182.768 182.078 183.141C182.4 183.366 182.747 183.551 183.113 183.692C182.822 183.431 182.507 183.198 182.172 182.997L179.878 181.377L177.588 179.745C177.282 179.501 176.952 179.288 176.605 179.109H176.605Z" fill="#263238"/>
<path fill-rule="evenodd" clip-rule="evenodd" d="M190.859 195.636L188.99 207.89L181.531 207.877L179.017 195.636H190.859Z" fill="#455A64"/>
<path fill-rule="evenodd" clip-rule="evenodd" d="M184.05 199.571C184.253 199.265 184.371 198.911 184.393 198.545C184.439 198.127 184.243 197.72 183.889 197.493C183.486 197.29 183.003 197.33 182.638 197.595C182.268 197.867 182.013 198.268 181.926 198.719C181.827 199.174 181.795 199.641 181.832 200.105C181.856 200.589 181.957 201.066 182.133 201.517C182.312 201.991 182.603 202.415 182.981 202.751C183.381 203.105 183.886 203.317 184.419 203.353C184.948 203.364 185.467 203.217 185.911 202.929C186.337 202.657 186.713 202.316 187.026 201.92C187.346 201.539 187.543 201.071 187.59 200.576C187.628 200.083 187.432 199.601 187.06 199.274C186.674 198.99 186.156 198.958 185.737 199.194C185.342 199.392 185.061 199.761 184.974 200.194C184.861 200.973 185.236 201.742 185.92 202.132C186.47 202.432 187.109 202.525 187.722 202.395C188.171 202.3 188.601 202.129 188.994 201.89C189.244 201.744 189.484 201.583 189.715 201.407C189.799 201.35 189.876 201.283 189.944 201.208C189.856 201.258 189.771 201.313 189.689 201.373C189.524 201.479 189.265 201.644 188.956 201.822C188.559 202.043 188.13 202.198 187.684 202.28C187.104 202.389 186.504 202.293 185.988 202.009C185.37 201.642 185.035 200.939 185.14 200.228C185.221 199.849 185.471 199.527 185.818 199.355C186.173 199.155 186.613 199.181 186.942 199.423C187.263 199.711 187.43 200.133 187.395 200.563C187.348 201.019 187.163 201.449 186.865 201.797C186.566 202.172 186.208 202.496 185.805 202.755C185.396 203.024 184.917 203.164 184.427 203.158C183.941 203.122 183.48 202.928 183.113 202.607C182.754 202.293 182.477 201.897 182.303 201.454C182.134 201.021 182.035 200.565 182.011 200.101C181.973 199.657 182 199.21 182.091 198.774C182.165 198.366 182.391 198.001 182.723 197.752C183.031 197.523 183.44 197.482 183.787 197.646C184.086 197.844 184.25 198.192 184.211 198.549C184.194 198.888 184.087 199.215 183.902 199.499C183.563 199.988 183.075 200.354 182.511 200.542C182.087 200.691 181.635 200.745 181.188 200.699C180.805 200.653 180.432 200.543 180.086 200.372C180.086 200.372 180.086 200.372 180.145 200.419C180.209 200.459 180.276 200.496 180.344 200.529C180.611 200.66 180.897 200.745 181.192 200.779C181.654 200.842 182.124 200.797 182.566 200.648C183.161 200.461 183.679 200.086 184.041 199.579" fill="#263238"/>
</g>
</svg>
